# Blender 4.0.0
# www.blender.org
mtllib left_hand_thumb_0_link.mtl
o left_hand_thumb_0_link
v -0.011500 -0.000500 -0.009500
v -0.011355 -0.021163 0.009500
v -0.011243 -0.021971 -0.009500
v -0.008807 -0.025891 0.009501
v -0.006493 -0.027667 -0.009500
v -0.004708 -0.028120 0.009499
v 0.009453 -0.027121 0.009498
v -0.011492 -0.000413 0.009500
v 0.009921 -0.000117 0.009500
v 0.008861 -0.027707 -0.009501
v 0.009771 -0.000030 -0.009500
vn -0.9999 -0.0120 0.0005
vn -1.0000 -0.0066 -0.0056
vn -0.8802 -0.4744 0.0150
vn -0.7675 -0.6401 -0.0337
vn -0.4776 -0.8783 0.0239
vn 0.0704 -0.9971 0.0286
vn -0.0027 -0.9997 -0.0236
vn 0.9990 -0.0328 -0.0301
vn 0.9998 -0.0173 -0.0080
vn -0.0138 0.9999 -0.0046
vn -0.0221 0.9997 0.0047
vn 0.0001 -0.0000 1.0000
vn -0.0000 -0.0001 1.0000
vn 0.0006 0.0005 1.0000
vn -0.0001 -0.0000 -1.0000
vn -0.0000 -0.0000 -1.0000
s 0
f 1//1 3//1 8//1
f 8//2 3//2 2//2
f 2//3 3//3 4//3
f 4//4 3//4 5//4
f 4//5 5//5 6//5
f 7//6 6//6 10//6
f 10//7 6//7 5//7
f 10//8 11//8 7//8
f 7//9 11//9 9//9
f 8//10 9//10 1//10
f 1//11 9//11 11//11
f 2//12 6//12 7//12
f 2//12 7//12 8//12
f 8//13 7//13 9//13
f 2//14 4//14 6//14
f 1//15 10//15 5//15
f 5//15 3//15 1//15
f 1//16 11//16 10//16
