# Blender 4.0.0
# www.blender.org
mtllib left_hand_index_0_link.mtl
o left_hand_index_0_link
v 0.020000 0.005500 0.009500
v 0.020000 0.005500 -0.009500
v 0.040100 -0.000600 0.009500
v 0.038235 -0.008800 0.009500
v 0.050300 -0.007794 0.009500
v 0.047312 0.005677 0.009500
v 0.054244 -0.003470 0.009507
v 0.040190 0.004713 0.009500
v 0.054300 0.005500 0.009500
v 0.045800 -0.009000 0.009500
v 0.047694 -0.008890 -0.009509
v 0.020907 -0.009000 -0.009292
v 0.042937 -0.009000 -0.009300
v 0.052093 0.012600 0.012900
v 0.052093 0.012600 -0.012800
v 0.054800 -0.000000 -0.009500
v 0.052986 -0.005637 -0.009501
v 0.037136 -0.008650 -0.009500
v 0.043757 0.008328 -0.009500
v 0.054387 0.008508 -0.009500
v 0.038047 -0.003538 -0.009500
v 0.037215 0.000483 -0.009499
v 0.039305 0.005637 -0.009500
v 0.018587 -0.005508 -0.009500
v 0.019000 -0.008400 -0.009500
v -0.002591 0.005057 -0.009481
v 0.013500 0.005500 -0.009500
v -0.005615 -0.000028 -0.009534
v -0.002728 -0.005039 -0.009494
v 0.018765 0.007154 -0.012784
v 0.019116 0.012477 -0.012788
v 0.013500 0.007000 0.009500
v -0.000762 -0.007159 0.009511
v -0.005507 -0.004515 0.009503
v 0.017727 -0.005710 0.009517
v -0.007088 0.001503 0.009490
v -0.002761 0.006541 0.009499
v 0.018607 0.008020 0.012886
v 0.016889 0.007027 0.012898
v 0.019074 0.012106 0.012898
v 0.054300 0.008500 -0.012800
v 0.043711 0.008267 -0.012800
v 0.039657 0.006019 -0.012800
v 0.037264 0.001020 -0.012800
v 0.038042 -0.003684 -0.012800
v 0.018500 -0.005500 -0.012800
v -0.000955 -0.005416 -0.012800
v -0.005159 -0.002218 -0.012813
v -0.005168 0.001881 -0.012800
v -0.001881 0.005168 -0.012800
v 0.013500 0.007000 -0.012800
v 0.036790 -0.008892 -0.012800
v 0.019008 -0.008487 -0.012800
v -0.001216 0.006894 0.012900
v -0.004696 0.005319 0.012906
v -0.007160 -0.000000 0.012908
v -0.004706 -0.005342 0.012902
v -0.001014 -0.006936 0.012901
v 0.019100 -0.008000 0.012900
v 0.038235 -0.008800 0.012900
v 0.040401 0.004414 0.012899
v 0.047052 0.005700 0.012900
v 0.017034 -0.005538 0.012900
v 0.054776 0.010047 0.012900
v 0.054387 0.005508 0.012900
v 0.022426 -0.014510 0.008223
v 0.025281 -0.014650 0.008943
v 0.027631 -0.014650 0.008943
v 0.032556 -0.014650 0.008944
v 0.034981 -0.014650 0.008944
v 0.037406 -0.014650 0.008944
v 0.039831 -0.014649 0.008944
v 0.043996 -0.011800 0.008306
v 0.019689 -0.011423 0.006282
v 0.041197 -0.014471 0.009854
v 0.044068 -0.009864 0.006590
v 0.020469 -0.013496 0.000932
v 0.019825 -0.009803 0.009221
v 0.043287 -0.013625 0.003458
v 0.042337 -0.014240 0.000364
v 0.022710 -0.014595 0.000859
v 0.019825 -0.009803 0.000321
v 0.022292 -0.014591 -0.006432
v 0.031344 -0.014650 0.000044
v 0.034013 -0.014588 -0.004760
v 0.039961 -0.014644 0.001198
v 0.043952 -0.012233 0.000306
v 0.043995 -0.009499 -0.007117
v 0.019682 -0.011303 -0.004900
v 0.030131 -0.014500 -0.001625
v 0.020627 -0.013565 -0.004993
v 0.028617 -0.014575 -0.003018
v 0.028452 -0.014599 -0.007733
v 0.043326 -0.013590 -0.006510
v 0.044011 -0.011470 -0.007171
v 0.019825 -0.009803 -0.006910
v 0.040103 -0.014644 -0.007947
v 0.019829 -0.011625 -0.008022
v 0.038012 -0.013524 0.010483
v 0.043051 -0.011500 0.010464
v 0.038012 -0.013498 -0.009293
v 0.042466 -0.014211 -0.008713
v 0.022224 -0.014425 -0.008505
v 0.043051 -0.009000 0.010464
v 0.043370 -0.013338 0.009725
v 0.020912 -0.013701 0.010085
v 0.024260 -0.014028 -0.008947
v 0.021045 -0.012839 -0.009116
vn -0.9999 0.0115 -0.0000
vn -0.9962 0.0717 0.0493
vn -0.8620 -0.5069 -0.0000
vn -0.0552 0.8862 0.4600
vn -0.0026 0.0008 1.0000
vn -0.0000 -0.0000 1.0000
vn -0.0760 0.0873 0.9933
vn -0.1943 0.0442 0.9800
vn 0.3307 -0.0341 0.9431
vn -0.0021 -1.0000 -0.0060
vn 0.0231 -0.9997 -0.0001
vn -0.0128 -0.7361 -0.6767
vn -0.0003 -0.3281 -0.9446
vn -0.9935 0.1134 -0.0099
vn -0.9978 0.0658 -0.0007
vn -0.0150 0.9998 0.0144
vn -0.0037 1.0000 -0.0000
vn 0.6893 0.7244 -0.0000
vn 0.8796 0.4735 -0.0448
vn 0.9960 -0.0853 -0.0252
vn 0.9996 -0.0063 0.0281
vn 0.9987 0.0485 0.0122
vn 0.9953 -0.0961 -0.0107
vn 0.9907 0.1335 -0.0264
vn 0.2588 -0.9657 0.0202
vn 0.5236 -0.8517 -0.0227
vn 0.7386 -0.6736 0.0279
vn 0.9515 -0.3062 -0.0281
vn 0.0013 0.0976 -0.9952
vn -0.0000 -0.0000 -1.0000
vn 0.0002 0.0022 -1.0000
vn -0.0009 0.0002 -1.0000
vn -0.0000 0.0002 -1.0000
vn -0.0002 0.0001 -1.0000
vn 0.0001 -0.0001 -1.0000
vn 0.0003 0.0001 1.0000
vn 0.0012 -0.0013 1.0000
vn -0.0155 -0.0010 0.9999
vn -0.1025 0.0193 -0.9945
vn 0.0013 -0.0007 -1.0000
vn 0.0001 -0.0009 -1.0000
vn 0.0033 -0.0012 -1.0000
vn -0.0003 -0.0014 -1.0000
vn 0.0004 -0.0012 -1.0000
vn -0.1182 0.9930 0.0080
vn -0.0246 0.9101 0.4137
vn 0.0169 -0.9999 0.0019
vn 0.0220 -0.9996 0.0183
vn 0.4850 -0.8745 0.0094
vn 0.5167 -0.8550 -0.0437
vn 0.9011 -0.4312 0.0462
vn 0.9257 -0.3754 -0.0472
vn 0.9857 0.1631 0.0413
vn 0.9792 0.2026 -0.0102
vn 0.9845 -0.1753 0.0065
vn 0.9688 -0.2330 -0.0845
vn -0.0228 -0.9994 0.0262
vn -0.0137 -0.9971 0.0747
vn -0.9855 -0.1675 0.0255
vn -0.9899 -0.1414 0.0014
vn -0.0220 -0.9998 -0.0017
vn -0.0043 -0.9938 0.1112
vn -0.5892 -0.7753 -0.2275
vn -0.8484 -0.4871 0.2073
vn -0.9906 -0.0019 -0.1365
vn -0.8467 0.5016 0.1775
vn -0.7014 0.7014 -0.1266
vn 0.0029 0.0043 -1.0000
vn -0.0008 0.0004 -1.0000
vn -0.0009 -0.0002 -1.0000
vn -0.0004 0.0007 -1.0000
vn -0.0007 0.0002 -1.0000
vn -0.0008 -0.0008 -1.0000
vn 0.0055 0.0032 -1.0000
vn -0.0000 -1.0000 -0.0000
vn -0.2242 -0.9715 0.0767
vn -0.0262 -0.9997 0.0029
vn -0.0254 -0.9997 0.0047
vn -0.0281 0.9955 -0.0906
vn -0.5001 0.8654 -0.0323
vn -0.0074 1.0000 -0.0006
vn -0.0080 1.0000 -0.0000
vn -0.0292 0.9996 0.0028
vn -0.4104 0.9072 0.0923
vn -0.7441 0.6395 -0.1932
vn -0.8951 0.4149 0.1634
vn -0.9587 -0.2521 -0.1313
vn -0.9029 -0.4150 0.1118
vn -0.4843 -0.8695 -0.0974
vn -0.3962 -0.9176 0.0308
vn 0.0771 -0.9948 0.0663
vn 0.0779 -0.9944 0.0710
vn 0.0544 -0.9985 -0.0000
vn -0.0376 -0.9002 0.4338
vn 0.9751 -0.2218 -0.0000
vn 0.9757 -0.1599 0.1496
vn 0.9979 -0.0170 -0.0632
vn 0.1336 -0.9865 -0.0951
vn 0.1898 -0.9816 0.0211
vn 0.0010 0.0099 1.0000
vn -0.0011 -0.0028 1.0000
vn -0.0001 -0.0000 1.0000
vn -0.0001 0.0001 1.0000
vn -0.0000 0.0001 1.0000
vn -0.0001 -0.0012 1.0000
vn 0.0016 0.0001 1.0000
vn 0.0012 -0.0000 1.0000
vn -0.0000 0.0002 1.0000
vn 0.0001 0.0001 1.0000
vn -1.0000 -0.0000 -0.0000
vn -0.8874 -0.4584 0.0499
vn -0.7602 -0.6379 -0.1233
vn -0.4684 -0.8835 0.0028
vn -0.0513 -0.9986 0.0095
vn -0.0000 -1.0000 -0.0068
vn -0.0000 -1.0000 -0.0008
vn 0.0002 -1.0000 -0.0007
vn 0.9159 -0.0029 0.4015
vn 0.9160 -0.0000 0.4012
vn -0.9033 -0.4276 0.0341
vn -0.0027 -1.0000 -0.0052
vn 0.1287 -0.9917 0.0014
vn 0.9276 -0.3735 0.0050
vn 0.4638 -0.8853 0.0345
vn 0.9992 -0.0399 -0.0034
vn 0.9164 -0.4000 0.0166
vn 0.1662 -0.9861 -0.0040
vn 0.4623 -0.8861 0.0339
vn -0.4404 -0.8978 -0.0067
vn -0.9805 -0.1830 -0.0720
vn -0.9845 -0.1597 0.0728
vn -0.0035 -0.9995 0.0312
vn 0.0023 -0.9999 -0.0117
vn 0.7724 -0.6250 -0.1132
vn 0.9995 -0.0325 -0.0062
vn -0.4402 -0.8979 -0.0012
vn -0.9229 -0.3846 -0.0200
vn 0.0028 -1.0000 -0.0006
vn -0.0080 -0.9998 -0.0172
vn 0.3498 -0.8757 -0.3329
vn -0.0093 -1.0000 -0.0002
vn 0.1674 -0.9859 -0.0008
vn -0.5063 -0.8619 0.0287
vn 0.2280 0.9705 -0.0784
vn -0.0343 -0.9994 0.0062
vn -0.0598 -0.9971 -0.0462
vn 0.7786 -0.6253 0.0529
vn 0.5761 -0.8173 0.0056
vn -0.0002 -1.0000 0.0050
vn -0.0078 -0.9998 0.0184
vn 0.1810 -0.9835 0.0028
vn 0.9489 -0.3146 -0.0246
vn 0.9999 0.0079 0.0087
vn -0.7200 -0.2744 -0.6374
vn -0.9984 0.0283 -0.0500
vn -0.7765 -0.6295 0.0283
vn -0.7619 -0.6472 -0.0273
vn -0.0036 -0.9999 0.0106
vn 0.8969 -0.3670 -0.2466
vn 0.9014 0.0192 -0.4326
vn -0.0000 -0.8072 0.5903
vn -0.0064 -0.7811 0.6243
vn 0.0002 -0.8072 0.5903
vn -0.0108 -0.9185 -0.3952
vn 0.0124 -0.7517 -0.6594
vn -0.0347 -0.4236 -0.9052
vn -0.0181 -0.9967 -0.0795
vn 0.9185 -0.0000 0.3954
vn -0.0000 -0.3450 -0.9386
vn -0.0000 0.0055 1.0000
vn -0.3440 -0.2907 -0.8928
vn -0.2101 -0.0113 -0.9776
vn -0.2938 -0.0808 -0.9525
vn 0.3449 -0.3790 -0.8587
vn -0.0004 -0.0013 -1.0000
vn -0.0219 -0.0830 -0.9963
vn 0.7637 0.6270 0.1536
vn -0.0592 0.2002 0.9780
vn -0.0236 0.0305 0.9993
vn 0.4022 -0.4446 0.8003
vn -0.4269 -0.0000 0.9043
vn -0.5615 0.1848 0.8066
vn 0.2264 -0.3295 0.9166
vn -0.9583 -0.2294 0.1705
vn 0.9632 0.1574 0.2177
vn 0.6820 0.7312 0.0158
vn 0.4310 0.9023 -0.0025
vn -0.1241 -0.9430 0.3087
vn 0.8110 -0.1374 -0.5686
vn 0.0443 -0.8363 -0.5466
vn -0.9151 0.2086 -0.3451
vn -0.2342 -0.8841 -0.4043
vn -0.9955 0.0949 -0.0000
vn 1.0000 -0.0000 -0.0000
vn -0.9965 0.0832 -0.0000
vn -0.0000 -0.0806 0.9967
s 0
f 1//1 2//1 78//1
f 78//2 2//2 25//2
f 78//3 25//3 96//3
f 4//4 78//4 104//4
f 7//5 9//5 5//5
f 3//6 6//6 8//6
f 6//7 3//7 104//7
f 104//8 3//8 4//8
f 5//6 9//6 10//6
f 10//6 9//6 6//6
f 10//9 6//9 104//9
f 10//10 104//10 11//10
f 11//11 104//11 13//11
f 11//12 13//12 25//12
f 25//13 13//13 12//13
f 38//14 40//14 30//14
f 30//15 40//15 31//15
f 40//16 14//16 31//16
f 31//17 14//17 15//17
f 14//18 64//18 15//18
f 15//19 64//19 41//19
f 64//20 65//20 9//20
f 7//21 16//21 9//21
f 9//22 16//22 20//22
f 9//23 20//23 64//23
f 64//24 20//24 41//24
f 10//25 11//25 5//25
f 5//26 11//26 17//26
f 5//27 17//27 7//27
f 7//28 17//28 16//28
f 18//29 11//29 25//29
f 19//30 20//30 16//30
f 11//31 21//31 17//31
f 11//32 18//32 21//32
f 21//33 16//33 17//33
f 16//30 21//30 19//30
f 19//34 21//34 22//34
f 22//35 23//35 19//35
f 2//6 24//6 25//6
f 24//6 2//6 27//6
f 24//36 27//36 29//36
f 29//37 27//37 26//37
f 26//38 28//38 29//38
f 78//39 35//39 1//39
f 33//40 34//40 37//40
f 32//41 33//41 37//41
f 34//42 36//42 37//42
f 1//43 35//43 32//43
f 32//44 35//44 33//44
f 50//45 26//45 51//45
f 51//46 26//46 27//46
f 20//47 19//47 41//47
f 41//48 19//48 42//48
f 42//49 19//49 43//49
f 43//50 19//50 23//50
f 43//51 23//51 44//51
f 44//52 23//52 22//52
f 44//53 22//53 45//53
f 45//54 22//54 21//54
f 21//55 18//55 45//55
f 45//56 18//56 52//56
f 25//57 53//57 52//57
f 25//58 52//58 18//58
f 46//59 53//59 24//59
f 24//60 53//60 25//60
f 24//61 29//61 46//61
f 46//62 29//62 47//62
f 47//63 29//63 48//63
f 48//64 29//64 28//64
f 48//65 28//65 49//65
f 49//66 28//66 26//66
f 49//67 26//67 50//67
f 52//30 46//30 51//30
f 52//68 51//68 30//68
f 46//30 52//30 53//30
f 44//69 30//69 43//69
f 44//70 45//70 30//70
f 42//71 43//71 31//71
f 49//30 50//30 47//30
f 30//72 45//72 52//72
f 42//71 31//71 15//71
f 43//73 30//73 31//73
f 51//30 46//30 50//30
f 50//30 46//30 47//30
f 49//74 47//74 48//74
f 42//30 15//30 41//30
f 2//75 1//75 27//75
f 27//76 1//76 32//76
f 65//77 62//77 9//77
f 9//78 62//78 6//78
f 32//79 37//79 54//79
f 38//80 30//80 39//80
f 54//81 39//81 32//81
f 32//82 39//82 51//82
f 51//83 39//83 30//83
f 54//84 37//84 55//84
f 55//85 37//85 36//85
f 55//86 36//86 56//86
f 56//87 36//87 34//87
f 56//88 34//88 57//88
f 57//89 34//89 33//89
f 57//90 33//90 58//90
f 63//91 58//91 35//91
f 35//92 58//92 33//92
f 4//93 60//93 78//93
f 78//94 60//94 59//94
f 4//95 3//95 60//95
f 60//96 3//96 61//96
f 8//97 61//97 3//97
f 8//98 6//98 61//98
f 61//99 6//99 62//99
f 61//100 38//100 39//100
f 40//101 38//101 61//101
f 63//6 59//6 61//6
f 40//102 61//102 14//102
f 14//103 61//103 62//103
f 59//104 60//104 61//104
f 58//105 56//105 57//105
f 55//106 58//106 54//106
f 55//107 56//107 58//107
f 39//108 63//108 61//108
f 62//6 64//6 14//6
f 64//6 62//6 65//6
f 54//109 58//109 39//109
f 39//108 58//108 63//108
f 27//110 32//110 51//110
f 78//111 59//111 35//111
f 35//112 59//112 63//112
f 66//113 106//113 77//113
f 81//114 67//114 66//114
f 81//115 68//115 67//115
f 86//116 69//116 68//116
f 86//116 70//116 69//116
f 71//116 70//116 86//116
f 71//117 86//117 72//117
f 100//118 105//118 73//118
f 104//119 100//119 73//119
f 77//120 106//120 74//120
f 68//121 81//121 86//121
f 75//122 72//122 86//122
f 73//123 105//123 79//123
f 79//124 105//124 75//124
f 73//125 87//125 76//125
f 79//126 87//126 73//126
f 80//127 75//127 86//127
f 75//128 80//128 79//128
f 81//129 66//129 77//129
f 74//130 82//130 77//130
f 82//131 89//131 77//131
f 86//132 81//132 84//132
f 84//133 85//133 86//133
f 87//134 79//134 80//134
f 76//135 87//135 88//135
f 81//136 77//136 91//136
f 91//137 77//137 89//137
f 81//138 83//138 92//138
f 81//139 92//139 84//139
f 90//140 84//140 92//140
f 86//141 85//141 97//141
f 102//142 80//142 86//142
f 83//143 81//143 91//143
f 84//144 93//144 90//144
f 93//145 84//145 92//145
f 84//146 90//146 85//146
f 87//147 80//147 94//147
f 94//148 80//148 102//148
f 93//149 92//149 83//149
f 90//150 93//150 85//150
f 102//151 86//151 97//151
f 87//152 94//152 95//152
f 87//153 95//153 88//153
f 83//154 91//154 89//154
f 96//155 98//155 89//155
f 83//156 89//156 98//156
f 83//157 98//157 103//157
f 85//158 93//158 97//158
f 102//159 95//159 94//159
f 95//160 13//160 88//160
f 67//161 71//161 99//161
f 67//162 99//162 106//162
f 99//163 71//163 72//163
f 97//164 93//164 107//164
f 97//165 107//165 101//165
f 98//166 25//166 12//166
f 93//167 83//167 103//167
f 104//168 100//168 105//168
f 68//169 70//169 71//169
f 68//170 71//170 67//170
f 98//171 12//171 107//171
f 107//172 103//172 98//172
f 102//173 97//173 13//173
f 13//174 97//174 101//174
f 13//175 101//175 12//175
f 12//176 101//176 107//176
f 98//177 103//177 108//177
f 78//178 106//178 104//178
f 106//179 99//179 104//179
f 104//180 99//180 72//180
f 104//181 72//181 100//181
f 100//182 72//182 75//182
f 100//183 75//183 105//183
f 78//184 74//184 106//184
f 104//185 73//185 76//185
f 104//186 76//186 88//186
f 104//187 88//187 13//187
f 66//188 67//188 106//188
f 102//189 13//189 95//189
f 103//190 107//190 93//190
f 12//191 98//191 96//191
f 25//192 12//192 96//192
f 96//193 89//193 82//193
f 96//194 82//194 78//194
f 78//195 82//195 74//195
f 68//196 69//196 70//196
