# Blender 4.0.0
# www.blender.org
mtllib left_hand_thumb_1_link.mtl
o left_hand_thumb_1_link
v -0.005500 -0.020000 -0.009500
v -0.004306 -0.040403 -0.009501
v -0.005603 -0.041546 -0.009500
v 0.003959 -0.054148 -0.009500
v -0.006000 -0.054800 -0.009500
v 0.008457 -0.048878 -0.009500
v 0.008387 -0.038727 -0.009500
v 0.009050 -0.045638 -0.009745
v 0.009000 -0.020848 0.009264
v -0.012600 -0.020000 -0.009500
v -0.007000 -0.020000 0.009500
v -0.012476 -0.019309 0.012756
v -0.012454 -0.052446 0.012800
v -0.009000 -0.054800 0.009500
v -0.009000 -0.054800 0.012800
v 0.008490 -0.049050 0.009548
v 0.005785 -0.052694 0.009500
v 0.002283 -0.054598 0.009500
v -0.008090 -0.042903 0.009505
v 0.008487 -0.037196 0.009500
v 0.000517 -0.037589 0.009501
v -0.004719 -0.038595 0.009500
v 0.005530 -0.018671 0.009500
v -0.005203 0.002155 0.009497
v -0.005500 -0.013500 0.009500
v -0.001881 0.005168 0.009500
v 0.001881 0.005168 0.009500
v 0.005226 0.002190 0.009502
v -0.005500 -0.013500 -0.009500
v 0.007566 -0.019062 -0.009500
v 0.005215 0.004820 -0.009497
v -0.006894 0.001216 -0.009500
v -0.000204 0.007110 -0.009490
v 0.005500 -0.016600 -0.009500
v 0.006559 0.001519 -0.009544
v -0.005279 0.004712 -0.009500
v -0.007693 -0.018469 -0.009503
v -0.005500 -0.013500 0.012800
v -0.007500 -0.019000 0.012800
v -0.007922 -0.042199 0.012800
v -0.003470 -0.037917 0.012800
v 0.002902 -0.037849 0.012809
v 0.006000 -0.019000 0.012800
v 0.005168 0.001881 0.012800
v 0.001881 0.005168 0.012800
v -0.002750 0.004763 0.012800
v -0.005119 0.002115 0.012800
v 0.008571 -0.037173 0.012800
v 0.008487 -0.019008 0.012800
v -0.007845 -0.018562 -0.012913
v -0.007000 0.000000 -0.012900
v -0.005485 0.004603 -0.012900
v 0.000238 0.007208 -0.012878
v 0.005576 0.004382 -0.012900
v 0.006646 0.001052 -0.012909
v 0.008300 -0.019100 -0.012900
v -0.004144 -0.040278 -0.012900
v -0.005700 -0.041600 -0.012900
v 0.008533 -0.038677 -0.012900
v -0.012187 -0.019108 -0.012900
v -0.012576 -0.052247 -0.012900
v -0.010120 -0.054746 -0.012900
v 0.006085 -0.018207 -0.012900
v -0.005749 -0.054716 -0.012900
v 0.009803 -0.019825 -0.008665
v 0.014523 -0.031847 -0.008542
v 0.014500 -0.036800 -0.009500
v 0.011778 -0.044007 -0.009446
v 0.014501 -0.026314 -0.008257
v 0.009803 -0.044075 -0.008109
v 0.009755 -0.019731 -0.003507
v 0.014493 -0.022486 -0.008526
v 0.014500 -0.038012 -0.006162
v 0.014232 -0.042372 -0.008135
v 0.011747 -0.044006 -0.002799
v 0.014500 -0.036193 -0.005050
v 0.014500 -0.034375 -0.003937
v 0.014506 -0.038880 -0.000846
v 0.009803 -0.044075 -0.001434
v 0.013234 -0.020391 -0.006889
v 0.013354 -0.043350 -0.001582
v 0.014492 -0.022569 0.006621
v 0.014500 -0.036800 0.001625
v 0.014500 -0.039225 0.001625
v 0.014424 -0.041936 -0.000827
v 0.013370 -0.020626 0.008937
v 0.014499 -0.041044 0.002738
v 0.009803 -0.044075 0.002459
v 0.009691 -0.019712 0.006690
v 0.014504 -0.031261 0.007426
v 0.014500 -0.038012 0.003850
v 0.012988 -0.043792 0.007572
v 0.014500 -0.036800 0.006075
v 0.014500 -0.039225 0.006075
v 0.014378 -0.042280 0.005519
v 0.009803 -0.044075 0.005797
v 0.014499 -0.041044 0.007188
v 0.009803 -0.044075 0.008022
v 0.013177 -0.020870 -0.010253
v 0.013444 -0.025887 -0.010500
v 0.013046 -0.041716 -0.010598
v 0.013548 -0.025888 0.009271
v 0.013955 -0.038942 0.009128
v 0.009000 -0.020963 -0.010500
v 0.012981 -0.042585 0.009349
vn 0.0666 0.9978 0.0053
vn 0.0529 0.9986 -0.0058
vn -0.8576 0.5143 -0.0030
vn -0.5746 -0.0262 -0.8180
vn -0.0000 -0.0000 -1.0000
vn -0.0128 0.0139 -0.9998
vn -0.0046 0.0350 -0.9994
vn -0.0358 -0.0687 -0.9970
vn 0.9653 -0.2604 -0.0180
vn 0.7698 -0.0075 0.6382
vn -0.0000 1.0000 -0.0000
vn 0.1067 0.9938 -0.0315
vn -0.9930 0.0116 -0.1176
vn -1.0000 -0.0014 0.0056
vn -1.0000 -0.0007 0.0047
vn -0.7131 -0.7010 -0.0020
vn -0.5630 -0.8261 0.0228
vn 0.0067 -0.9997 -0.0242
vn 0.0653 -0.9977 -0.0179
vn 0.0179 -0.9998 0.0028
vn -0.0117 -0.9999 -0.0018
vn -0.0486 -0.9988 -0.0000
vn 0.9836 -0.1803 -0.0033
vn 0.8031 -0.5958 -0.0067
vn 0.7604 -0.6490 -0.0234
vn 0.4774 -0.8784 0.0213
vn 0.3124 0.0039 0.9499
vn -0.0000 -0.0004 1.0000
vn -0.0119 -0.0042 0.9999
vn -0.0001 0.0040 1.0000
vn -0.0000 -0.0000 1.0000
vn 0.0005 -0.0000 1.0000
vn -0.0004 0.0016 1.0000
vn -0.0098 0.0922 -0.9957
vn -0.0000 0.0001 -1.0000
vn 0.0005 -0.0002 -1.0000
vn 0.0005 0.0005 -1.0000
vn -0.0000 -0.0007 -1.0000
vn -0.4497 -0.6573 0.6047
vn 0.0320 -0.4462 0.8944
vn 0.0035 -0.0127 0.9999
vn 0.0032 0.0003 1.0000
vn 0.0004 -0.0022 1.0000
vn 0.0007 0.0024 1.0000
vn -0.0025 0.0012 1.0000
vn -0.0000 0.0022 1.0000
vn -0.9994 0.0244 0.0255
vn -0.9998 0.0190 -0.0000
vn -0.0565 0.9531 -0.2974
vn 0.9971 -0.0763 -0.0000
vn 0.9958 -0.0852 -0.0327
vn 0.7843 -0.6136 0.0911
vn 0.6887 -0.7161 -0.1136
vn 0.1870 -0.9738 0.1292
vn 0.0107 -0.9962 -0.0860
vn 0.0490 -0.9924 -0.1133
vn 0.1184 -0.9930 0.0038
vn 0.9900 0.0046 0.1413
vn 0.9992 -0.0317 -0.0253
vn 0.0030 0.9951 0.0988
vn 0.4810 0.8043 -0.3489
vn 0.9901 0.0144 -0.1395
vn 0.9990 0.0398 0.0212
vn 0.7049 0.7049 0.0784
vn 0.6649 0.7469 -0.0000
vn -0.0867 0.9913 0.0989
vn -0.6694 0.7379 -0.0857
vn -0.7450 0.6665 0.0268
vn -0.0014 -0.0003 1.0000
vn 0.0014 0.0013 1.0000
vn -0.0029 0.0013 1.0000
vn -0.0087 -0.0018 1.0000
vn -0.0016 0.0016 1.0000
vn 0.9715 -0.2242 0.0767
vn 1.0000 -0.0000 -0.0000
vn 0.9969 -0.0299 0.0728
vn -0.1247 0.9920 -0.0216
vn -0.2911 0.9334 0.2096
vn -0.9935 -0.0941 0.0647
vn -0.5719 -0.8191 -0.0451
vn -0.8492 0.0383 0.5266
vn -0.9145 0.4036 0.0296
vn -0.9149 0.4038 -0.0000
vn -0.9785 0.1995 0.0518
vn -0.9126 0.3319 -0.2388
vn -0.9467 0.3115 -0.0818
vn -0.9071 0.4189 0.0415
vn -0.4273 0.9041 -0.0031
vn -0.4140 0.9098 -0.0279
vn 0.3882 0.9183 0.0770
vn 0.4666 0.8821 -0.0640
vn 0.9253 0.3760 0.0497
vn 0.9519 0.3058 -0.0180
vn 0.9828 -0.0285 0.1825
vn 0.9977 -0.0582 0.0337
vn 0.3037 0.9512 0.0550
vn 0.9986 -0.0321 0.0425
vn 0.9623 0.0115 -0.2717
vn 0.1309 -0.9914 -0.0090
vn 0.1253 -0.9917 -0.0303
vn 0.9996 -0.0037 -0.0286
vn -0.0029 -0.0008 -1.0000
vn 0.0004 -0.0005 -1.0000
vn -0.0007 0.0001 -1.0000
vn -0.0033 0.0016 -1.0000
vn 0.0011 0.0063 -1.0000
vn 0.0009 -0.0004 -1.0000
vn -0.0007 0.0007 -1.0000
vn 0.0009 -0.0005 -1.0000
vn 0.3730 0.9252 0.0702
vn 0.7550 0.6335 -0.1695
vn 0.9325 -0.0976 -0.3477
vn 0.6613 -0.7501 -0.0069
vn 0.6475 -0.7621 0.0029
vn 0.2319 0.9625 -0.1409
vn 0.8245 0.0715 -0.5613
vn 0.9022 -0.0283 -0.4304
vn 0.9062 0.0254 -0.4221
vn 0.8733 -0.1551 -0.4618
vn 0.6495 -0.5965 -0.4715
vn 0.1711 0.9851 -0.0163
vn 0.8190 0.5660 -0.0944
vn 1.0000 -0.0043 -0.0016
vn 0.9984 -0.0528 -0.0192
vn 0.0346 -0.9994 0.0004
vn 0.0356 -0.9994 -0.0000
vn 1.0000 -0.0023 0.0037
vn -0.0000 -0.4731 0.8810
vn 0.5536 -0.8328 0.0028
vn 1.0000 0.0037 0.0070
vn 1.0000 0.0006 -0.0010
vn 0.9996 -0.0269 -0.0055
vn 0.9984 -0.0510 -0.0232
vn 0.4263 -0.9013 -0.0774
vn 0.9999 -0.0050 -0.0092
vn 0.7934 -0.6085 0.0154
vn 0.8581 0.5135 0.0029
vn 0.8660 0.5001 -0.0000
vn 0.1985 0.9800 0.0129
vn 1.0000 0.0021 0.0001
vn 1.0000 0.0007 0.0004
vn 1.0000 0.0014 -0.0011
vn 1.0000 0.0001 0.0023
vn 0.9995 -0.0270 -0.0143
vn 1.0000 0.0007 0.0024
vn 0.3960 -0.9178 -0.0285
vn 0.7968 -0.6042 0.0027
vn 0.2414 0.9704 -0.0003
vn 0.9993 -0.0282 0.0261
vn 1.0000 0.0001 0.0014
vn 0.0688 -0.9976 0.0123
vn 1.0000 0.0001 -0.0000
vn 1.0000 -0.0005 -0.0003
vn 1.0000 -0.0006 0.0004
vn 0.7131 -0.7003 -0.0329
vn 0.9957 -0.0923 0.0022
vn 1.0000 -0.0009 0.0005
vn -0.9991 0.0363 0.0199
vn 1.0000 -0.0003 -0.0003
vn 0.9987 -0.0442 0.0237
vn 0.0885 -0.9961 -0.0000
vn -0.9983 0.0309 0.0493
vn 0.9162 0.0562 0.3967
vn 0.9880 -0.0374 0.1500
vn 0.9845 0.0001 0.1757
vn 0.9810 0.1006 0.1657
vn 0.8661 -0.4119 0.2832
vn 0.8635 -0.2030 0.4616
vn 0.8489 -0.4522 0.2737
vn 0.0126 0.8472 -0.5311
vn 0.1511 -0.8174 0.5558
vn 0.1003 0.1885 -0.9769
vn 0.8513 -0.0181 -0.5244
vn -0.4477 0.1731 0.8773
vn -0.1883 -0.0590 0.9803
vn -0.0141 -0.0114 0.9998
vn 0.0711 0.0655 0.9953
vn 0.0578 0.0522 -0.9970
vn -0.0340 -0.0306 -0.9990
vn -0.2197 0.0116 -0.9755
vn 0.4244 -0.5832 -0.6926
vn 0.9010 -0.4338 -0.0000
vn -1.0000 -0.0000 -0.0000
vn 0.9145 0.0241 0.4038
vn 0.3890 -0.7487 0.5367
vn -0.0166 0.9163 0.4002
vn -0.8362 0.5484 -0.0063
vn -0.8027 0.5961 -0.0183
vn 0.9263 0.0361 0.3751
s 0
f 1//1 11//1 104//1
f 104//2 11//2 9//2
f 104//3 9//3 89//3
f 7//4 104//4 8//4
f 4//5 5//5 6//5
f 3//6 2//6 8//6
f 8//7 2//7 7//7
f 6//5 5//5 3//5
f 6//8 3//8 8//8
f 16//9 8//9 98//9
f 16//10 98//10 9//10
f 1//11 10//11 11//11
f 11//12 10//12 12//12
f 10//13 60//13 61//13
f 10//14 61//14 12//14
f 12//15 61//15 13//15
f 61//16 62//16 13//16
f 13//17 62//17 15//17
f 62//18 64//18 5//18
f 4//19 18//19 5//19
f 5//20 18//20 14//20
f 5//21 14//21 62//21
f 62//22 14//22 15//22
f 8//23 16//23 6//23
f 6//24 16//24 17//24
f 6//25 17//25 4//25
f 4//26 17//26 18//26
f 20//27 16//27 9//27
f 19//28 14//28 18//28
f 16//29 21//29 17//29
f 16//30 20//30 21//30
f 21//31 18//31 17//31
f 18//32 21//32 19//32
f 19//33 21//33 22//33
f 11//34 23//34 9//34
f 23//5 11//5 25//5
f 23//35 25//35 28//35
f 28//36 25//36 24//36
f 28//37 24//37 26//37
f 26//38 27//38 28//38
f 65//39 30//39 104//39
f 104//40 30//40 1//40
f 31//41 32//41 35//41
f 30//31 34//31 1//31
f 29//42 35//42 32//42
f 31//43 33//43 32//43
f 1//31 34//31 29//31
f 29//44 34//44 35//44
f 32//45 33//45 36//45
f 1//46 37//46 10//46
f 47//47 24//47 38//47
f 38//48 24//48 25//48
f 11//49 12//49 39//49
f 14//50 19//50 15//50
f 15//51 19//51 40//51
f 40//52 19//52 22//52
f 40//53 22//53 41//53
f 41//54 22//54 21//54
f 41//55 21//55 42//55
f 21//56 20//56 42//56
f 42//57 20//57 48//57
f 9//58 49//58 48//58
f 9//59 48//59 20//59
f 43//60 49//60 23//60
f 23//61 49//61 9//61
f 23//62 28//62 43//62
f 43//63 28//63 44//63
f 44//64 28//64 45//64
f 45//65 28//65 27//65
f 45//11 27//11 26//11
f 45//66 26//66 46//66
f 46//67 26//67 24//67
f 46//68 24//68 47//68
f 48//31 43//31 38//31
f 48//31 38//31 39//31
f 43//31 48//31 49//31
f 39//69 41//69 42//69
f 39//70 42//70 48//70
f 40//71 12//71 13//71
f 41//72 39//72 12//72
f 38//31 43//31 47//31
f 47//31 43//31 44//31
f 47//31 44//31 46//31
f 12//73 40//73 41//73
f 46//31 44//31 45//31
f 40//31 13//31 15//31
f 11//74 1//74 25//74
f 25//75 1//75 29//75
f 5//76 64//76 3//76
f 50//77 60//77 37//77
f 37//78 60//78 10//78
f 29//79 32//79 51//79
f 1//80 11//80 37//80
f 51//81 50//81 29//81
f 29//82 50//82 37//82
f 29//83 37//83 38//83
f 38//84 37//84 11//84
f 38//85 11//85 39//85
f 51//86 32//86 52//86
f 52//87 32//87 36//87
f 52//88 36//88 33//88
f 52//89 33//89 53//89
f 53//90 33//90 31//90
f 53//91 31//91 54//91
f 54//92 31//92 35//92
f 54//93 35//93 55//93
f 63//94 55//94 34//94
f 34//95 55//95 35//95
f 65//96 56//96 30//96
f 7//97 59//97 104//97
f 104//98 59//98 56//98
f 7//99 2//99 59//99
f 59//100 2//100 57//100
f 58//101 3//101 64//101
f 60//102 50//102 58//102
f 58//103 50//103 57//103
f 60//5 58//5 61//5
f 61//5 58//5 64//5
f 56//5 59//5 63//5
f 63//5 59//5 57//5
f 52//104 55//104 51//104
f 54//105 55//105 53//105
f 52//106 53//106 55//106
f 50//107 63//107 57//107
f 64//5 62//5 61//5
f 51//108 55//108 50//108
f 50//109 55//109 63//109
f 25//31 29//31 38//31
f 30//110 56//110 63//110
f 30//111 63//111 34//111
f 56//112 65//112 104//112
f 3//113 58//113 2//113
f 2//114 58//114 57//114
f 65//115 80//115 99//115
f 72//116 100//116 99//116
f 69//117 100//117 72//117
f 100//118 69//118 66//118
f 67//119 74//119 101//119
f 68//120 101//120 74//120
f 65//121 71//121 80//121
f 99//122 80//122 72//122
f 67//123 66//123 73//123
f 74//124 67//124 73//124
f 70//125 68//125 75//125
f 70//126 75//126 79//126
f 66//127 77//127 73//127
f 76//128 73//128 77//128
f 74//129 75//129 68//129
f 66//130 69//130 77//130
f 78//131 73//131 77//131
f 73//132 78//132 85//132
f 74//133 73//133 85//133
f 75//134 74//134 81//134
f 69//135 78//135 77//135
f 81//136 74//136 85//136
f 72//137 80//137 82//137
f 82//138 80//138 86//138
f 80//139 71//139 86//139
f 82//140 69//140 72//140
f 69//141 82//141 78//141
f 78//142 82//142 90//142
f 78//143 83//143 84//143
f 85//144 78//144 87//144
f 78//145 84//145 87//145
f 75//146 81//146 92//146
f 92//147 81//147 85//147
f 79//126 75//126 88//126
f 86//148 71//148 89//148
f 78//149 90//149 83//149
f 84//150 83//150 87//150
f 88//151 75//151 92//151
f 91//152 84//152 83//152
f 83//153 90//153 91//153
f 84//154 91//154 87//154
f 92//155 85//155 95//155
f 85//156 87//156 95//156
f 93//157 91//157 90//157
f 94//158 91//158 95//158
f 91//159 94//159 87//159
f 87//160 94//160 95//160
f 92//161 96//161 88//161
f 97//162 94//162 95//162
f 93//152 94//152 91//152
f 94//150 93//150 97//150
f 102//163 82//163 86//163
f 103//164 93//164 90//164
f 103//165 94//165 93//165
f 94//166 103//166 97//166
f 92//167 95//167 105//167
f 97//168 103//168 105//168
f 97//169 105//169 95//169
f 96//161 92//161 98//161
f 99//170 104//170 65//170
f 105//171 98//171 92//171
f 66//172 67//172 101//172
f 66//173 101//173 100//173
f 105//174 103//174 98//174
f 98//175 103//175 9//175
f 9//176 103//176 102//176
f 9//177 102//177 86//177
f 99//178 100//178 104//178
f 104//179 100//179 8//179
f 100//180 101//180 8//180
f 8//181 101//181 68//181
f 70//182 79//182 8//182
f 8//182 79//182 98//182
f 98//75 79//75 88//75
f 98//183 88//183 96//183
f 102//184 103//184 90//184
f 68//185 70//185 8//185
f 9//186 86//186 89//186
f 89//187 71//187 104//187
f 104//188 71//188 65//188
f 90//189 82//189 102//189
