# Blender 4.0.0
# www.blender.org
mtllib right_hand_thumb_1_link.mtl
o right_hand_thumb_1_link
v -0.005500 0.020000 0.009500
v -0.005500 0.020000 -0.009500
v -0.004329 0.040461 0.009471
v 0.003629 0.054213 0.009497
v 0.008439 0.049294 0.009473
v -0.005700 0.047052 0.009500
v 0.008533 0.038677 0.009500
v -0.005508 0.054387 0.009500
v 0.009117 0.043114 -0.009360
v 0.007268 0.051327 -0.009501
v 0.001968 0.054715 -0.009498
v -0.008530 0.054471 -0.009500
v 0.008650 0.037136 -0.009500
v -0.008314 0.043658 -0.009499
v -0.001443 0.037274 -0.009495
v -0.005763 0.039552 -0.009500
v 0.008411 0.019049 -0.009365
v 0.005500 0.018500 -0.009500
v -0.005500 0.013500 -0.009500
v -0.005500 0.000000 -0.009500
v -0.003535 -0.004213 -0.009500
v 0.005004 -0.002642 -0.009487
v -0.000000 -0.005500 -0.009500
v -0.007077 0.018674 -0.012795
v -0.012448 0.019198 -0.012791
v -0.007000 0.013500 0.009500
v 0.008630 0.019227 0.009726
v 0.006783 -0.002249 0.009500
v 0.003348 -0.006252 0.009500
v 0.005868 0.018136 0.009500
v -0.001454 -0.006941 0.009500
v 0.005500 0.005300 0.009500
v -0.006258 -0.003583 0.009505
v -0.009500 0.019100 0.009500
v -0.007000 0.016600 0.009500
v -0.012570 0.019429 0.009500
v -0.008500 0.054300 -0.012800
v -0.008023 0.042437 -0.012803
v -0.003470 0.037917 -0.012800
v 0.002764 0.037747 -0.012789
v 0.005500 0.018500 -0.012800
v 0.004700 -0.003013 -0.012783
v -0.000268 -0.005560 -0.012815
v -0.004973 -0.002460 -0.012804
v -0.007000 0.013500 -0.012800
v 0.008650 0.019067 -0.012800
v 0.008650 0.037136 -0.012800
v -0.012594 0.052171 -0.012800
v -0.007000 0.016600 0.012900
v -0.006894 -0.001216 0.012900
v -0.005284 -0.004730 0.012900
v -0.002394 -0.006578 0.012900
v 0.001454 -0.006941 0.012900
v 0.005406 -0.004537 0.012900
v 0.006894 -0.001216 0.012900
v 0.005500 0.005300 0.012900
v -0.004915 0.040456 0.012901
v -0.012570 0.019429 0.012900
v -0.009066 0.019062 0.012900
v 0.005979 0.018111 0.012900
v 0.008471 0.019130 0.012900
v 0.008657 0.038585 0.012900
v -0.010047 0.054776 0.012900
v -0.012594 0.052171 0.012900
v -0.005768 0.054387 0.012900
v 0.011318 0.019748 0.008943
v 0.013003 0.020316 0.009243
v 0.014574 0.023766 0.008665
v 0.014492 0.035793 0.009420
v 0.014479 0.041346 0.008387
v 0.013507 0.043243 0.008329
v 0.010726 0.019670 0.006573
v 0.014421 0.021939 0.007553
v 0.014502 0.036798 0.007267
v 0.011760 0.043989 0.006939
v 0.009540 0.044000 -0.007144
v 0.013588 0.020566 0.005470
v 0.014449 0.022050 0.002389
v 0.014527 0.027156 0.008241
v 0.014500 0.036800 0.005050
v 0.014500 0.039225 0.005050
v 0.012894 0.020240 0.000834
v 0.014472 0.039115 -0.008364
v 0.014500 0.039225 0.001712
v 0.011537 0.019847 -0.001569
v 0.014500 0.027100 -0.000513
v 0.014499 0.022856 -0.001625
v 0.013533 0.043203 -0.001623
v 0.014500 0.024675 -0.002738
v 0.012689 0.020065 -0.006044
v 0.014364 0.021664 -0.006805
v 0.012216 0.043925 -0.007050
v 0.011318 0.019749 -0.007744
v 0.014503 0.027278 -0.008283
v 0.014539 0.031837 -0.007290
v 0.014443 0.041597 -0.007350
v 0.013550 0.024377 0.010468
v 0.013249 0.021737 0.010417
v 0.013548 0.038012 0.010471
v 0.012356 0.043351 0.010190
v 0.013498 0.038012 -0.009293
v 0.013442 0.024405 -0.009300
v 0.011689 0.020973 -0.009300
v 0.012491 0.042578 -0.009416
v 0.014437 0.039860 0.009846
v 0.009000 0.043994 0.009743
v 0.013675 0.021624 -0.008961
vn -0.0546 -0.9985 -0.0000
vn -0.0683 -0.9976 0.0101
vn -0.5253 0.0073 0.8509
vn 0.0002 -0.0048 1.0000
vn -0.0182 -0.0081 0.9998
vn -0.0084 -0.0449 0.9990
vn 0.0019 -0.0001 1.0000
vn -0.0060 0.0502 0.9987
vn 0.0804 -0.9953 0.0535
vn -0.0972 -0.9952 0.0098
vn -1.0000 -0.0007 -0.0000
vn -1.0000 -0.0002 -0.0055
vn -1.0000 -0.0044 -0.0000
vn -0.7150 0.6991 -0.0000
vn -0.4609 0.8863 -0.0442
vn 0.0904 0.9959 0.0069
vn 0.0190 0.9995 0.0248
vn -0.0232 0.9997 0.0081
vn 0.0792 0.9968 -0.0082
vn -0.5457 0.8366 -0.0483
vn 0.9944 0.1054 0.0012
vn 0.9751 0.2189 -0.0367
vn 0.7147 0.6987 0.0308
vn 0.5385 0.8423 -0.0248
vn 0.4306 -0.0124 -0.9024
vn 0.0002 -0.0001 -1.0000
vn -0.0002 0.0235 -0.9997
vn 0.0198 -0.0127 -0.9997
vn -0.0005 -0.0001 -1.0000
vn 0.0004 -0.0003 -1.0000
vn 0.0020 0.0015 -1.0000
vn -0.0193 -0.1416 0.9897
vn -0.0014 -0.0006 1.0000
vn -0.0000 -0.0000 1.0000
vn -0.0003 0.0006 1.0000
vn -0.0012 -0.0000 1.0000
vn -0.0010 -0.0027 1.0000
vn 0.0238 0.1448 -0.9892
vn -0.0004 0.0004 -1.0000
vn -0.0000 -0.0000 -1.0000
vn -0.0003 -0.0003 -1.0000
vn -0.0002 0.0012 -1.0000
vn -0.9900 -0.1257 -0.0643
vn -0.9104 -0.0000 0.4138
vn 0.9998 0.0200 0.0081
vn 0.9965 0.0400 0.0728
vn 0.8433 0.5240 -0.1194
vn 0.6979 0.7031 0.1366
vn 0.4635 0.8788 -0.1133
vn 0.0265 0.9842 0.1752
vn 0.0136 0.9872 0.1591
vn 0.1032 0.9947 -0.0000
vn 0.9976 -0.0000 0.0693
vn 0.9999 -0.0132 -0.0000
vn 0.1771 -0.9842 -0.0000
vn 0.1849 -0.9827 0.0077
vn 0.9997 -0.0235 -0.0000
vn 0.9955 -0.0371 -0.0877
vn 0.4952 -0.8672 0.0519
vn 0.4562 -0.8896 -0.0208
vn -0.3417 -0.9388 0.0445
vn -0.5394 -0.8181 -0.1994
vn -0.8935 -0.4166 0.1677
vn -0.0013 0.0009 -1.0000
vn 0.0017 -0.0006 -1.0000
vn -0.0017 0.0012 -1.0000
vn -0.0013 -0.0003 -1.0000
vn -0.0008 -0.0001 -1.0000
vn -0.0001 0.0002 -1.0000
vn 0.0020 -0.0008 -1.0000
vn 0.0025 0.0075 -1.0000
vn 0.0001 -0.0006 -1.0000
vn -0.0001 0.0003 -1.0000
vn 1.0000 -0.0000 -0.0000
vn 0.9715 -0.2242 0.0767
vn 0.9967 -0.0261 0.0763
vn -0.1042 -0.9946 0.0022
vn -0.1066 -0.9943 -0.0000
vn -0.9870 -0.0429 -0.1548
vn -0.9142 0.4033 0.0407
vn -1.0000 -0.0060 0.0054
vn -1.0000 -0.0000 -0.0000
vn -0.9999 -0.0148 0.0021
vn -0.9027 -0.4134 0.1193
vn -0.5695 -0.8144 -0.1118
vn -0.5378 -0.8410 -0.0588
vn -0.0937 -0.9924 0.0801
vn 0.1410 -0.9826 -0.1206
vn 0.5163 -0.8486 0.1155
vn 0.7524 -0.6458 -0.1298
vn 0.9086 -0.4069 0.0941
vn 0.9779 0.2092 -0.0000
vn 0.9825 0.1670 -0.0828
vn 0.9988 -0.0373 -0.0329
vn 0.9996 -0.0287 -0.0000
vn 0.9993 0.0045 -0.0363
vn 0.9987 -0.0095 0.0496
vn 0.1373 0.9903 0.0219
vn 0.1365 0.9903 0.0250
vn 0.9657 0.2002 0.1655
vn 0.9919 0.0607 -0.1112
vn -0.0001 -0.0000 1.0000
vn -0.0001 0.0001 1.0000
vn -0.0000 -1.0000 -0.0000
vn 0.3785 -0.9254 -0.0192
vn -0.7071 -0.7071 -0.0000
vn -0.7629 -0.6402 0.0903
vn 0.3680 -0.9298 -0.0099
vn 0.8485 -0.1068 0.5183
vn 0.8939 -0.2855 0.3456
vn 0.7333 -0.3975 0.5515
vn 0.8530 -0.4125 0.3199
vn 0.8775 0.0717 0.4742
vn 0.9334 0.3237 0.1551
vn -0.7055 0.5067 0.4955
vn 0.8789 -0.2963 0.3739
vn 0.7841 0.4162 0.4604
vn 0.3000 0.9450 0.1305
vn 0.1864 -0.9824 -0.0142
vn 0.7915 -0.6055 0.0829
vn 0.9996 -0.0018 0.0273
vn 0.1650 0.9731 0.1607
vn 0.0022 1.0000 0.0004
vn 0.3272 -0.9436 -0.0507
vn 0.9963 -0.0856 0.0035
vn 0.9997 0.0112 -0.0231
vn 0.9999 -0.0108 -0.0008
vn 1.0000 -0.0001 -0.0008
vn 1.0000 0.0040 0.0037
vn 0.9999 0.0131 -0.0021
vn 0.8898 0.4564 0.0053
vn 0.2923 -0.9562 -0.0178
vn 0.8593 -0.5114 -0.0063
vn 1.0000 0.0037 0.0019
vn 1.0000 0.0023 0.0022
vn 0.3059 -0.9518 0.0211
vn 1.0000 0.0091 -0.0005
vn 0.9692 -0.2464 -0.0000
vn 1.0000 -0.0001 -0.0021
vn 1.0000 -0.0001 -0.0000
vn 0.9997 0.0239 -0.0000
vn 0.2685 -0.9633 0.0058
vn 0.7873 -0.6120 -0.0749
vn 0.3948 0.9188 -0.0027
vn 0.8702 0.4927 0.0003
vn 0.9999 -0.0119 -0.0030
vn 0.9999 -0.0124 -0.0030
vn 0.9999 0.0128 -0.0029
vn 0.9960 -0.0890 -0.0054
vn 0.7494 -0.6618 0.0209
vn 1.0000 -0.0062 0.0069
vn 0.9999 0.0077 0.0140
vn -1.0000 0.0005 -0.0006
vn 0.2497 -0.9682 0.0172
vn 0.6901 -0.7237 -0.0021
vn 1.0000 -0.0032 0.0035
vn 0.9994 -0.0298 -0.0192
vn 1.0000 -0.0008 0.0001
vn 1.0000 -0.0073 -0.0029
vn 0.4476 0.8942 0.0105
vn 0.7150 0.6944 -0.0809
vn 0.0281 0.9996 -0.0036
vn 0.6323 -0.7516 -0.1879
vn 0.5140 -0.8166 -0.2626
vn 0.9515 0.0426 -0.3047
vn 0.8636 -0.1483 -0.4820
vn 0.7394 -0.0917 -0.6670
vn 0.6145 0.1143 -0.7806
vn 0.6672 0.6780 -0.3084
vn 0.7604 0.2532 -0.5981
vn 0.0416 0.8703 -0.4907
vn 0.1378 0.9102 -0.3906
vn 0.9342 -0.0446 0.3540
vn 0.7436 -0.0000 0.6686
vn 0.0817 -0.6433 0.7612
vn 0.5131 -0.4733 -0.7161
vn -0.3620 -0.1428 -0.9212
vn -0.3444 0.7759 0.5285
vn -0.0219 -0.0319 -0.9993
vn 0.0150 -0.0002 -0.9999
vn 0.0122 0.0005 -0.9999
vn -0.6429 0.0583 0.7637
vn 0.3285 -0.4346 0.8386
vn -0.1507 0.0016 0.9886
vn -0.1583 -0.0002 0.9874
vn -0.1277 0.0236 0.9915
vn -0.8735 0.4860 -0.0277
vn 0.3725 0.1314 0.9187
vn 0.7845 0.4228 0.4536
vn 0.8830 -0.0034 -0.4693
vn 0.3455 0.1972 -0.9175
vn 0.2414 -0.9703 -0.0142
vn 0.2235 -0.9746 0.0102
vn 0.2324 -0.9726 0.0064
vn 0.2058 -0.9786 -0.0008
s 0
f 1//1 2//1 27//1
f 27//2 2//2 17//2
f 7//3 27//3 106//3
f 4//4 8//4 5//4
f 6//5 3//5 106//5
f 106//6 3//6 7//6
f 5//7 8//7 6//7
f 5//8 6//8 106//8
f 1//9 36//9 24//9
f 24//10 36//10 25//10
f 36//11 58//11 64//11
f 36//12 64//12 25//12
f 25//13 64//13 48//13
f 64//14 63//14 48//14
f 48//15 63//15 37//15
f 63//16 65//16 8//16
f 4//17 11//17 8//17
f 8//18 11//18 12//18
f 8//19 12//19 63//19
f 63//20 12//20 37//20
f 106//21 9//21 5//21
f 5//22 9//22 10//22
f 5//23 10//23 4//23
f 4//24 10//24 11//24
f 13//25 9//25 17//25
f 14//26 12//26 11//26
f 9//27 13//27 15//27
f 9//28 15//28 10//28
f 15//29 11//29 10//29
f 11//30 15//30 14//30
f 14//31 15//31 16//31
f 2//32 18//32 17//32
f 22//33 20//33 21//33
f 18//34 2//34 19//34
f 18//35 19//35 22//35
f 22//36 19//36 20//36
f 23//37 22//37 21//37
f 27//38 30//38 1//38
f 28//39 29//39 33//39
f 26//40 32//40 28//40
f 26//41 28//41 33//41
f 33//42 29//42 31//42
f 1//40 30//40 26//40
f 26//40 30//40 32//40
f 35//40 34//40 1//40
f 1//40 34//40 36//40
f 44//43 20//43 45//43
f 45//44 20//44 19//44
f 12//45 14//45 37//45
f 37//46 14//46 38//46
f 38//47 14//47 16//47
f 38//48 16//48 39//48
f 39//49 16//49 15//49
f 39//50 15//50 40//50
f 15//51 13//51 40//51
f 40//52 13//52 47//52
f 17//53 46//53 47//53
f 17//54 47//54 13//54
f 41//55 46//55 18//55
f 18//56 46//56 17//56
f 18//57 22//57 41//57
f 41//58 22//58 42//58
f 42//59 22//59 23//59
f 42//60 23//60 43//60
f 43//61 23//61 21//61
f 43//62 21//62 44//62
f 44//63 21//63 20//63
f 47//40 41//40 45//40
f 47//64 45//64 24//64
f 41//40 47//40 46//40
f 24//65 39//65 40//65
f 24//66 40//66 47//66
f 38//67 25//67 48//67
f 39//68 24//68 25//68
f 45//69 41//69 44//69
f 44//70 41//70 42//70
f 44//71 42//71 43//71
f 25//72 38//72 39//72
f 38//73 48//73 37//73
f 2//74 1//74 19//74
f 19//75 1//75 26//75
f 8//76 65//76 6//76
f 59//77 58//77 34//77
f 34//78 58//78 36//78
f 26//79 33//79 50//79
f 1//80 24//80 35//80
f 50//81 49//81 26//81
f 26//82 49//82 35//82
f 26//82 35//82 45//82
f 45//83 35//83 24//83
f 50//84 33//84 51//84
f 51//85 33//85 31//85
f 51//86 31//86 52//86
f 52//87 31//87 53//87
f 53//88 31//88 29//88
f 53//89 29//89 54//89
f 54//90 29//90 28//90
f 54//91 28//91 55//91
f 56//92 55//92 32//92
f 32//93 55//93 28//93
f 60//94 56//94 30//94
f 30//95 56//95 32//95
f 7//96 62//96 27//96
f 27//97 62//97 61//97
f 7//98 3//98 62//98
f 62//99 3//99 57//99
f 3//100 6//100 57//100
f 57//101 6//101 65//101
f 57//34 59//34 49//34
f 58//34 59//34 57//34
f 60//34 61//34 57//34
f 58//102 57//102 64//102
f 64//34 57//34 65//34
f 61//34 62//34 57//34
f 50//34 51//34 56//34
f 54//34 55//34 56//34
f 54//34 56//34 53//34
f 52//34 56//34 51//34
f 56//34 52//34 53//34
f 49//34 60//34 57//34
f 65//103 63//103 64//103
f 50//34 56//34 49//34
f 49//34 56//34 60//34
f 19//104 26//104 45//104
f 30//105 61//105 60//105
f 35//106 49//106 34//106
f 34//107 49//107 59//107
f 61//108 30//108 27//108
f 68//109 97//109 98//109
f 98//110 73//110 68//110
f 68//111 97//111 73//111
f 67//112 73//112 98//112
f 79//113 97//113 68//113
f 69//114 74//114 99//114
f 99//115 105//115 70//115
f 99//116 74//116 105//116
f 70//117 71//117 100//117
f 75//118 100//118 71//118
f 66//119 27//119 72//119
f 77//120 73//120 67//120
f 105//121 74//121 70//121
f 106//122 100//122 75//122
f 75//123 76//123 106//123
f 72//124 67//124 66//124
f 78//125 68//125 73//125
f 78//126 79//126 68//126
f 74//127 69//127 80//127
f 74//128 80//128 81//128
f 70//129 74//129 81//129
f 81//130 96//130 70//130
f 70//131 96//131 71//131
f 77//132 67//132 72//132
f 77//133 78//133 73//133
f 79//134 95//134 69//134
f 69//135 95//135 80//135
f 82//136 77//136 72//136
f 83//137 80//137 95//137
f 81//138 83//138 84//138
f 83//139 81//139 80//139
f 81//140 80//140 84//140
f 81//141 84//141 96//141
f 82//142 72//142 85//142
f 78//143 77//143 82//143
f 71//144 88//144 75//144
f 88//145 71//145 96//145
f 79//146 78//146 86//146
f 86//147 95//147 79//147
f 96//148 84//148 83//148
f 78//149 91//149 87//149
f 82//150 91//150 78//150
f 86//151 78//151 89//151
f 89//152 78//152 87//152
f 87//153 86//153 89//153
f 90//154 82//154 85//154
f 91//155 82//155 90//155
f 86//156 89//156 95//156
f 94//157 87//157 91//157
f 94//158 89//158 87//158
f 89//159 94//159 95//159
f 75//160 88//160 92//160
f 92//161 88//161 96//161
f 75//162 92//162 76//162
f 107//163 91//163 90//163
f 107//164 90//164 93//164
f 102//165 91//165 107//165
f 102//166 94//166 91//166
f 101//167 83//167 95//167
f 83//168 101//168 104//168
f 92//169 96//169 104//169
f 83//170 104//170 96//170
f 92//171 104//171 76//171
f 76//172 104//172 9//172
f 97//173 79//173 69//173
f 69//174 99//174 97//174
f 98//175 66//175 67//175
f 93//176 17//176 102//176
f 102//177 107//177 93//177
f 93//178 107//178 103//178
f 9//179 104//179 101//179
f 9//180 101//180 17//180
f 17//181 101//181 102//181
f 98//182 97//182 66//182
f 66//183 97//183 27//183
f 27//184 97//184 106//184
f 97//185 99//185 106//185
f 106//186 99//186 100//186
f 106//187 76//187 9//187
f 105//188 100//188 99//188
f 70//189 100//189 105//189
f 102//190 101//190 95//190
f 102//191 95//191 94//191
f 17//192 93//192 90//192
f 90//193 85//193 17//193
f 17//194 85//194 27//194
f 27//195 85//195 72//195
