# Blender 4.0.0
# www.blender.org
mtllib right_hand_middle_0_link.mtl
o right_hand_middle_0_link
v 0.020000 -0.005500 -0.009500
v 0.020000 -0.005500 0.009500
v 0.040856 -0.005270 -0.009365
v 0.051882 0.006794 -0.009500
v 0.047052 -0.005700 -0.009500
v 0.054542 0.002277 -0.009500
v 0.054733 -0.005750 -0.009500
v 0.038585 0.008657 -0.009500
v 0.047363 0.008863 -0.009500
v 0.043140 0.009106 0.009374
v 0.052093 -0.012600 0.012800
v 0.054654 -0.010246 -0.012900
v 0.054611 0.002247 0.009500
v 0.051327 0.007268 0.009501
v 0.054770 -0.008829 0.009500
v 0.043514 -0.008258 0.009500
v 0.037196 0.008487 0.009500
v 0.037321 0.000208 0.009495
v 0.038996 -0.005330 0.009521
v 0.018992 0.005913 0.009500
v 0.019067 0.008650 0.009500
v -0.000955 -0.005416 0.009500
v 0.013500 -0.005500 0.009500
v -0.004763 -0.002750 0.009500
v -0.000955 0.005416 0.009500
v -0.005416 0.000955 0.009500
v -0.004213 0.003535 0.009500
v 0.018633 -0.006990 0.012798
v 0.019002 -0.012080 0.012798
v -0.001960 -0.006763 -0.009500
v 0.013500 -0.007000 -0.009500
v -0.001075 0.006941 -0.009501
v -0.004730 0.005284 -0.009500
v 0.017871 0.005668 -0.009503
v -0.006968 0.001258 -0.009497
v -0.005963 -0.003922 -0.009495
v 0.018970 -0.008976 -0.012892
v 0.016645 -0.007016 -0.012900
v 0.019252 -0.012290 -0.012861
v -0.002511 -0.004970 0.012801
v 0.043407 -0.008195 0.012800
v 0.039552 -0.005763 0.012800
v 0.037219 -0.000922 0.012803
v 0.038008 0.003397 0.012800
v 0.018500 0.005500 0.012800
v -0.000955 0.005416 0.012800
v -0.004611 0.003254 0.012784
v -0.005416 -0.000955 0.012800
v 0.013500 -0.007000 0.012800
v 0.019008 0.008487 0.012800
v 0.037025 0.008783 0.012800
v 0.054770 -0.008829 0.012800
v -0.001917 -0.006824 -0.012900
v -0.005362 -0.004500 -0.012900
v -0.006894 -0.001216 -0.012900
v -0.006578 0.002394 -0.012900
v -0.004382 0.005576 -0.012900
v -0.001337 0.006827 -0.012902
v 0.040895 -0.005486 -0.012901
v 0.019167 0.008550 -0.012900
v 0.038585 0.008657 -0.012900
v 0.052171 -0.012594 -0.012900
v 0.017455 0.005651 -0.012900
v 0.054768 -0.005817 -0.012900
v 0.019870 0.011738 -0.007680
v 0.036416 0.014522 -0.009536
v 0.041997 0.014389 -0.008822
v 0.020465 0.013254 -0.007921
v 0.038881 0.014525 -0.007022
v 0.019920 0.009008 -0.009727
v 0.044043 0.009635 -0.006515
v 0.022672 0.014520 -0.008837
v 0.043709 0.012886 -0.003088
v 0.020034 0.012671 -0.002888
v 0.022021 0.014499 -0.006902
v 0.038012 0.014500 -0.002825
v 0.040134 0.014574 -0.003103
v 0.042219 0.014241 -0.002825
v 0.019824 0.010007 -0.000824
v 0.021619 0.014378 -0.001156
v 0.042226 0.014245 0.005765
v 0.019839 0.011762 0.005759
v 0.020864 0.013806 0.000795
v 0.044036 0.009591 0.005527
v 0.020506 0.013308 0.002738
v 0.043589 0.013042 0.007139
v 0.025552 0.014504 0.005614
v 0.020306 0.013267 0.006592
v 0.022116 0.014430 0.003536
v 0.019814 0.009839 0.007438
v 0.034375 0.014500 0.006075
v 0.036863 0.014570 0.005630
v 0.022399 0.014496 0.007049
v 0.025584 0.014575 0.008022
v 0.030738 0.014500 0.008300
v 0.033769 0.014500 0.008300
v 0.037692 0.013753 0.009139
v 0.021307 0.013232 -0.010445
v 0.024378 0.013442 -0.010500
v 0.041790 0.013271 -0.010548
v 0.021332 0.012781 0.009283
v 0.024405 0.013442 0.009300
v 0.043011 0.011899 0.009265
v 0.040276 0.014266 0.009085
v 0.019903 0.011500 0.008531
v 0.043846 0.012035 -0.009635
v 0.042937 0.009000 -0.010500
vn -1.0000 -0.0055 -0.0000
vn -0.9968 -0.0657 -0.0455
vn -0.0129 -0.9272 -0.3742
vn -0.0000 -0.0000 -1.0000
vn -0.0269 -0.0753 -0.9968
vn -0.2203 -0.0454 -0.9744
vn 0.2202 -0.0047 -0.9754
vn 0.0322 0.9995 -0.0057
vn -0.9964 -0.0847 -0.0065
vn -0.9973 -0.0723 -0.0091
vn -0.0092 -0.9999 0.0081
vn -0.0157 -0.9999 -0.0003
vn 0.6871 -0.7266 0.0019
vn 0.8151 -0.5786 0.0282
vn 0.9996 -0.0259 0.0109
vn 0.9997 0.0238 -0.0036
vn 0.9999 0.0144 0.0004
vn 0.9999 -0.0144 -0.0043
vn 0.9967 -0.0818 -0.0000
vn 0.2184 0.9752 0.0363
vn 0.4164 0.9091 -0.0105
vn 0.8368 0.5474 0.0108
vn 0.8616 0.5075 -0.0023
vn 0.0017 0.1841 0.9829
vn -0.0000 -0.0000 1.0000
vn 0.0212 -0.0003 0.9998
vn -0.0108 0.0207 0.9997
vn -0.0002 -0.0003 1.0000
vn -0.0003 0.0004 1.0000
vn 0.0093 0.0074 0.9999
vn 0.0002 0.0001 1.0000
vn 0.0010 0.0002 1.0000
vn 0.0831 0.0161 0.9964
vn -0.0000 0.0001 1.0000
vn -0.0001 0.0002 1.0000
vn 0.0001 0.0002 1.0000
vn 0.0019 0.0008 1.0000
vn -0.1254 -0.9893 0.0747
vn -0.0053 -0.9104 -0.4138
vn 0.0506 0.9987 -0.0000
vn 0.0557 0.9983 -0.0172
vn 0.5336 0.8457 0.0012
vn 0.5439 0.8390 0.0186
vn 0.8968 0.4321 -0.0950
vn 0.9492 0.2877 0.1273
vn 0.9832 -0.1796 -0.0313
vn 0.9760 0.0149 -0.2175
vn 0.9831 0.1796 0.0348
vn -0.0164 0.9987 0.0491
vn 0.0090 0.9960 -0.0889
vn -0.9781 0.1662 -0.1251
vn -0.9995 0.0272 -0.0166
vn -0.0247 0.9924 0.1206
vn -0.0043 1.0000 -0.0000
vn -0.5000 0.8660 -0.0000
vn -0.5092 0.8606 0.0122
vn -0.9039 0.4215 -0.0732
vn -0.9763 0.1873 0.1084
vn -0.9799 -0.1728 -0.1000
vn -0.8002 -0.5790 0.1565
vn -0.5664 -0.8089 -0.1576
vn 0.0004 -0.0006 1.0000
vn -0.0001 -0.0006 1.0000
vn -0.0005 0.0008 1.0000
vn -0.0001 -0.0001 1.0000
vn -0.0001 -0.0000 1.0000
vn -0.0001 0.0001 1.0000
vn -0.0075 0.0052 1.0000
vn -0.0000 1.0000 -0.0000
vn -0.2242 0.9715 -0.0767
vn 0.0065 0.9998 -0.0195
vn -0.0153 -0.9997 0.0176
vn -0.6438 -0.7636 0.0506
vn -0.0103 -0.9999 -0.0050
vn -0.0050 -1.0000 -0.0000
vn 0.0019 -1.0000 0.0008
vn -0.5787 -0.8155 0.0072
vn -0.5587 -0.8283 0.0418
vn -0.9028 -0.4210 -0.0880
vn -0.9751 -0.1890 0.1161
vn -0.9926 0.0868 -0.0848
vn -0.8723 0.4850 0.0619
vn -0.8225 0.5676 -0.0354
vn -0.4125 0.9102 0.0359
vn -0.3800 0.9250 -0.0016
vn 0.0625 0.9980 -0.0127
vn 0.0670 0.9970 -0.0384
vn 0.0188 0.9998 -0.0000
vn -0.0055 0.9899 -0.1418
vn 0.9870 0.1609 -0.0000
vn 0.9869 0.1612 0.0011
vn 0.0678 0.9959 -0.0601
vn 0.0238 0.9995 0.0198
vn 0.0002 -0.0038 -1.0000
vn 0.0011 -0.0093 -1.0000
vn -0.0012 -0.0020 -1.0000
vn -0.0008 0.0006 -1.0000
vn -0.0001 -0.0001 -1.0000
vn -0.0002 -0.0001 -1.0000
vn -0.0004 -0.0000 -1.0000
vn -0.0000 -0.0001 -1.0000
vn 0.0001 -0.0000 -1.0000
vn -1.0000 -0.0000 -0.0000
vn -0.8420 0.5250 0.1241
vn -0.8566 0.5058 0.1022
vn -0.5466 0.8156 -0.1898
vn -0.0658 0.8051 -0.5895
vn 0.0005 0.9999 0.0113
vn -0.2550 0.8252 -0.5040
vn 0.1892 0.9640 -0.1867
vn 0.5986 0.6378 -0.4847
vn 0.9485 -0.2191 -0.2286
vn -0.9024 0.3055 -0.3040
vn -0.0015 1.0000 0.0003
vn -0.5433 0.8214 -0.1736
vn 0.7734 0.6304 -0.0657
vn 0.9956 0.0932 0.0088
vn -0.9324 0.3595 -0.0381
vn -0.9977 -0.0513 0.0441
vn -0.6379 0.7693 0.0346
vn -0.0015 1.0000 -0.0000
vn 0.0049 1.0000 0.0069
vn 0.0566 0.9981 0.0225
vn 0.0495 0.8041 0.5924
vn -0.0352 0.9994 -0.0014
vn 0.1660 0.9839 -0.0656
vn 0.6722 0.7404 -0.0067
vn -0.9977 0.0646 -0.0180
vn -0.7143 0.6990 -0.0352
vn -0.0367 0.9992 -0.0132
vn 0.1502 0.9870 0.0568
vn -0.0058 0.9999 -0.0090
vn 0.0605 0.9982 -0.0005
vn 0.6728 0.7399 -0.0008
vn -0.9977 0.0666 -0.0155
vn -0.1798 0.9837 0.0081
vn -0.8987 0.4379 0.0258
vn -0.8095 0.5871 0.0014
vn -0.6992 0.7122 -0.0620
vn 0.1752 -0.9610 -0.2139
vn -0.5246 0.8501 0.0461
vn -0.0256 0.9996 0.0068
vn 0.6636 0.7481 -0.0037
vn 0.9949 0.1013 0.0010
vn 0.9923 0.1239 0.0097
vn -0.9466 0.3192 -0.0456
vn -0.5999 0.7946 0.0931
vn -0.9999 0.0120 -0.0010
vn -0.5648 0.8250 -0.0204
vn -0.0106 0.9998 -0.0180
vn -0.0060 0.9925 0.1222
vn -0.5105 0.8595 0.0249
vn 0.0004 1.0000 0.0001
vn 0.0597 0.9978 0.0288
vn -0.6892 0.7197 0.0839
vn -0.9260 0.0837 0.3681
vn -0.5304 0.7756 0.3422
vn 0.1407 0.9389 0.3142
vn -0.6995 0.7146 -0.0119
vn -0.0000 1.0000 0.0013
vn -0.0000 -1.0000 -0.0000
vn -0.0295 0.9995 -0.0080
vn 0.1438 0.9708 0.1920
vn -0.1824 0.9473 0.2635
vn 0.4692 0.8407 0.2702
vn 0.9647 0.0019 0.2632
vn 0.9710 0.0537 0.2330
vn 0.4595 0.1134 -0.8809
vn -0.0288 0.8250 -0.5644
vn 0.0042 0.6398 -0.7685
vn -0.3149 0.3870 0.8666
vn 0.1251 -0.6022 0.7885
vn -0.0330 0.0376 0.9987
vn 0.0089 0.0608 0.9981
vn 0.0042 0.0553 0.9985
vn 0.0114 0.0289 0.9995
vn -0.0063 -0.1655 -0.9862
vn -0.0333 -0.1390 -0.9897
vn -0.0029 -0.0120 -0.9999
vn 0.4989 -0.8666 -0.0005
vn 0.4661 -0.8847 -0.0029
vn -0.0082 0.7124 0.7018
vn -0.0241 0.7590 0.6506
vn 0.5446 0.6679 0.5072
vn -0.9990 0.0360 0.0264
vn -0.9084 0.2402 -0.3423
vn -0.1795 0.8198 0.5438
vn -0.9523 0.2016 -0.2289
vn -0.8386 0.5446 0.0101
vn -0.9678 0.2486 -0.0383
vn 0.0162 0.9994 -0.0298
vn -0.0000 0.7471 0.6647
s 0
f 1//1 2//1 70//1
f 70//2 2//2 21//2
f 8//3 70//3 107//3
f 4//4 6//4 7//4
f 4//4 7//4 9//4
f 5//5 3//5 107//5
f 107//6 3//6 8//6
f 9//4 7//4 5//4
f 9//7 5//7 107//7
f 9//8 107//8 10//8
f 37//9 39//9 28//9
f 28//10 39//10 29//10
f 39//11 62//11 29//11
f 29//12 62//12 11//12
f 62//13 12//13 11//13
f 11//14 12//14 52//14
f 12//15 64//15 7//15
f 6//16 13//16 7//16
f 7//17 13//17 15//17
f 7//18 15//18 12//18
f 12//19 15//19 52//19
f 9//20 10//20 14//20
f 9//21 14//21 4//21
f 4//22 14//22 13//22
f 4//23 13//23 6//23
f 17//24 10//24 21//24
f 16//25 15//25 13//25
f 10//26 17//26 18//26
f 10//27 18//27 14//27
f 18//28 13//28 14//28
f 13//29 18//29 16//29
f 16//30 18//30 19//30
f 2//4 20//4 21//4
f 25//4 22//4 24//4
f 20//4 2//4 23//4
f 20//4 23//4 25//4
f 25//4 23//4 22//4
f 24//4 26//4 27//4
f 27//4 25//4 24//4
f 33//31 30//31 32//31
f 30//32 33//32 35//32
f 70//33 34//33 1//33
f 31//34 32//34 30//34
f 1//35 34//35 31//35
f 31//36 34//36 32//36
f 30//37 35//37 36//37
f 40//38 22//38 49//38
f 49//39 22//39 23//39
f 15//40 16//40 52//40
f 52//41 16//41 41//41
f 41//42 16//42 42//42
f 42//43 16//43 19//43
f 42//44 19//44 43//44
f 43//45 19//45 18//45
f 43//46 18//46 44//46
f 18//47 17//47 44//47
f 44//48 17//48 51//48
f 21//49 50//49 51//49
f 21//50 51//50 17//50
f 45//51 50//51 20//51
f 20//52 50//52 21//52
f 20//53 25//53 45//53
f 45//54 25//54 46//54
f 46//55 25//55 27//55
f 46//56 27//56 47//56
f 47//57 27//57 26//57
f 47//58 26//58 48//58
f 48//59 26//59 24//59
f 48//60 24//60 40//60
f 40//61 24//61 22//61
f 51//25 45//25 49//25
f 51//62 49//62 28//62
f 45//25 51//25 50//25
f 43//63 28//63 42//63
f 28//64 43//64 44//64
f 29//65 41//65 42//65
f 28//66 44//66 51//66
f 41//65 29//65 11//65
f 42//67 28//67 29//67
f 49//25 45//25 40//25
f 40//34 45//34 46//34
f 40//67 46//67 48//67
f 48//68 46//68 47//68
f 41//25 11//25 52//25
f 2//69 1//69 23//69
f 23//70 1//70 31//70
f 7//71 64//71 5//71
f 31//72 30//72 53//72
f 37//73 28//73 38//73
f 53//74 38//74 31//74
f 31//75 38//75 49//75
f 49//76 38//76 28//76
f 53//77 30//77 36//77
f 53//78 36//78 54//78
f 54//79 36//79 55//79
f 55//80 36//80 35//80
f 55//81 35//81 56//81
f 56//82 35//82 33//82
f 56//83 33//83 57//83
f 57//84 33//84 32//84
f 57//85 32//85 58//85
f 63//86 58//86 34//86
f 34//87 58//87 32//87
f 8//88 61//88 70//88
f 70//89 61//89 60//89
f 8//90 3//90 61//90
f 61//91 3//91 59//91
f 3//92 5//92 59//92
f 59//93 5//93 64//93
f 59//94 37//94 38//94
f 39//95 37//95 59//95
f 39//96 59//96 62//96
f 62//4 59//4 64//4
f 60//4 61//4 59//4
f 60//4 59//4 63//4
f 57//97 58//97 56//97
f 54//98 58//98 53//98
f 54//99 55//99 58//99
f 58//100 55//100 56//100
f 38//4 63//4 59//4
f 64//4 12//4 62//4
f 53//101 58//101 38//101
f 38//102 58//102 63//102
f 23//103 31//103 49//103
f 70//104 60//104 34//104
f 34//105 60//105 63//105
f 72//106 98//106 68//106
f 72//107 99//107 98//107
f 75//108 66//108 72//108
f 67//109 100//109 69//109
f 66//110 69//110 100//110
f 106//111 100//111 67//111
f 106//112 71//112 107//112
f 68//113 98//113 65//113
f 69//114 66//114 75//114
f 75//115 72//115 68//115
f 106//116 67//116 73//116
f 106//117 73//117 71//117
f 65//118 74//118 68//118
f 65//119 70//119 74//119
f 75//120 68//120 74//120
f 87//121 69//121 75//121
f 69//122 87//122 76//122
f 78//123 67//123 69//123
f 77//124 76//124 78//124
f 76//125 77//125 69//125
f 69//126 77//126 78//126
f 73//127 67//127 78//127
f 70//128 79//128 74//128
f 74//129 80//129 75//129
f 76//130 92//130 77//130
f 77//131 92//131 78//131
f 76//132 87//132 92//132
f 78//133 92//133 81//133
f 73//134 78//134 81//134
f 74//135 79//135 82//135
f 89//136 75//136 80//136
f 85//137 74//137 82//137
f 74//138 85//138 83//138
f 74//139 83//139 80//139
f 83//140 80//140 85//140
f 80//141 83//141 89//141
f 75//142 89//142 87//142
f 86//143 73//143 81//143
f 73//144 84//144 71//144
f 73//145 86//145 84//145
f 85//146 82//146 88//146
f 85//147 89//147 83//147
f 82//148 79//148 90//148
f 88//149 89//149 85//149
f 93//150 87//150 89//150
f 92//151 87//151 91//151
f 88//152 93//152 89//152
f 96//153 91//153 87//153
f 104//154 81//154 92//154
f 101//155 82//155 105//155
f 82//156 101//156 88//156
f 93//157 88//157 101//157
f 102//158 87//158 93//158
f 102//159 94//159 87//159
f 87//160 95//160 96//160
f 96//161 95//161 91//161
f 96//162 92//162 91//162
f 97//163 92//163 96//163
f 97//164 104//164 92//164
f 86//165 81//165 104//165
f 86//166 103//166 84//166
f 84//167 103//167 10//167
f 107//168 100//168 106//168
f 99//169 72//169 66//169
f 66//170 100//170 99//170
f 105//171 21//171 102//171
f 102//172 101//172 105//172
f 103//173 104//173 10//173
f 10//174 104//174 97//174
f 10//175 97//175 21//175
f 21//176 97//176 102//176
f 98//177 99//177 70//177
f 70//178 99//178 107//178
f 99//179 100//179 107//179
f 107//180 71//180 10//180
f 10//181 71//181 84//181
f 102//182 97//182 95//182
f 102//183 95//183 94//183
f 103//184 86//184 104//184
f 82//185 90//185 105//185
f 98//186 70//186 65//186
f 101//187 102//187 93//187
f 21//188 105//188 90//188
f 21//189 90//189 79//189
f 21//190 79//190 70//190
f 95//191 87//191 94//191
f 97//192 96//192 95//192
