# Blender 4.0.0
# www.blender.org
mtllib right_hand_thumb_0_link.mtl
o right_hand_thumb_0_link
v -0.011500 0.000500 0.009500
v -0.011109 0.022645 0.009499
v -0.010832 0.023526 -0.009501
v -0.005757 0.027844 0.009500
v -0.004786 0.028106 -0.009500
v 0.009600 0.000000 -0.009500
v 0.009600 0.000000 0.009500
v 0.009511 0.027051 -0.009500
v -0.011433 0.000250 -0.009500
v 0.008925 0.027663 0.009501
vn -0.9998 0.0176 -0.0038
vn -0.9996 0.0258 -0.0134
vn -0.6966 0.7171 0.0230
vn -0.6038 0.7969 -0.0199
vn 0.0736 0.9968 -0.0298
vn 0.0124 0.9998 0.0144
vn 0.9993 0.0244 0.0300
vn 1.0000 0.0033 -0.0000
vn -0.0119 -0.9998 0.0131
vn -0.0237 -0.9997 -0.0000
vn -0.0000 0.0003 -1.0000
vn 0.0001 -0.0000 -1.0000
vn -0.0000 -0.0000 -1.0000
vn -0.0001 -0.0000 1.0000
vn -0.0000 -0.0000 1.0000
s 0
f 1//1 2//1 9//1
f 9//2 2//2 3//2
f 3//3 2//3 4//3
f 3//4 4//4 5//4
f 8//5 5//5 10//5
f 10//6 5//6 4//6
f 10//7 7//7 8//7
f 8//8 7//8 6//8
f 9//9 6//9 1//9
f 1//10 6//10 7//10
f 3//11 5//11 8//11
f 3//12 8//12 9//12
f 9//13 8//13 6//13
f 1//14 10//14 4//14
f 4//14 2//14 1//14
f 1//15 7//15 10//15
