# Blender 4.0.0
# www.blender.org
mtllib torso_constraint_L_rod_link.mtl
o torso_constraint_L_rod_link
v 0.002006 0.000386 0.006988
v -0.001993 0.000309 0.007120
v 0.002015 -0.004343 0.005814
v -0.001996 -0.005572 0.004637
v 0.002000 -0.007041 0.000757
v -0.001998 -0.006990 -0.001146
v 0.001991 -0.005923 -0.003900
v -0.001998 -0.004350 -0.005633
v 0.001991 -0.002507 -0.006648
v -0.002010 0.001927 -0.006939
v 0.001842 0.002975 -0.006474
v -0.002045 0.006859 -0.002350
v 0.001991 0.006415 -0.003007
v 0.002048 0.006764 0.002009
v -0.001996 0.005564 0.004535
v 0.001931 0.004163 0.005757
v -0.001996 -0.001680 -0.004402
v -0.002011 -0.001137 0.004582
v -0.001955 -0.004451 -0.001954
v 0.001996 -0.001257 0.004451
v 0.002004 -0.003834 0.002508
v -0.000002 0.004416 -0.002592
v -0.002005 0.003747 0.002845
v 0.001921 0.001396 0.004685
v 0.001781 0.004627 0.001830
v 0.001961 0.004372 -0.001799
v 0.001954 -0.002272 -0.004165
v -0.001632 0.001994 -0.004285
v -0.002022 0.004348 -0.001806
v 0.001932 -0.004866 0.000201
v -0.001884 -0.003790 0.003026
v 0.000005 -0.001920 0.004616
v 0.000047 -0.001248 -0.004977
v 0.000551 0.001929 -0.004580
v 0.000558 0.003699 0.003318
vn 0.0367 -0.2405 0.9699
vn -0.1496 -0.3845 0.9109
vn 0.1310 -0.8748 0.4664
vn -0.1249 -0.9636 0.2364
vn 0.0983 -0.9676 -0.2325
vn -0.1188 -0.8558 -0.5035
vn 0.0910 -0.6241 -0.7761
vn -0.1529 -0.2016 -0.9675
vn 0.1106 0.0345 -0.9933
vn -0.0962 0.6777 -0.7290
vn -0.0362 0.7102 -0.7031
vn 0.0979 0.9927 -0.0703
vn -0.1728 0.9677 0.1834
vn 0.1136 0.8145 0.5690
vn -0.1208 0.4381 0.8908
vn 0.0254 0.3102 0.9503
vn -1.0000 -0.0010 0.0040
vn -0.9919 -0.0356 -0.1221
vn -0.9798 -0.1400 0.1428
vn -0.9860 0.0932 0.1379
vn -1.0000 -0.0080 0.0056
vn -1.0000 0.0016 0.0038
vn -1.0000 0.0014 0.0040
vn -0.9972 -0.0042 -0.0740
vn -1.0000 -0.0032 0.0089
vn -0.9999 0.0160 -0.0036
vn -1.0000 0.0031 0.0053
vn -0.9997 0.0211 0.0124
vn -0.9999 -0.0045 0.0117
vn -0.9977 0.0675 0.0052
vn 0.7807 -0.5245 -0.3397
vn 0.8073 -0.1485 0.5712
vn 0.9900 -0.1285 0.0581
vn 0.9994 0.0092 -0.0331
vn 0.8386 0.1941 -0.5090
vn 0.9997 -0.0203 -0.0100
vn 1.0000 0.0033 -0.0061
vn 0.9993 0.0305 -0.0237
vn 0.7038 0.2987 0.6446
vn 0.9996 0.0267 0.0122
vn 0.9998 0.0111 0.0137
vn 0.7581 -0.6298 0.1690
vn 0.9995 -0.0251 -0.0180
vn 0.9999 0.0109 0.0116
vn 0.9994 0.0327 0.0059
vn 0.9995 0.0268 -0.0173
vn 0.9989 -0.0461 -0.0104
vn 1.0000 0.0049 -0.0026
vn -0.1876 0.8449 0.5010
vn -0.4132 -0.0481 0.9094
vn 0.1774 0.9752 -0.1321
vn -0.0439 0.9123 -0.4071
vn -0.0872 0.6953 -0.7134
vn -0.2578 0.5813 -0.7717
vn 0.2096 0.5022 -0.8390
vn 0.0206 0.0088 -0.9997
vn 0.2341 -0.3260 -0.9159
vn 0.1554 -0.4347 -0.8871
vn 0.0728 -0.8719 -0.4842
vn 0.2820 -0.0583 0.9576
vn 0.0710 0.6608 0.7472
vn 0.1283 -0.1430 0.9814
vn 0.0883 -0.6099 0.7875
vn 0.0448 0.6708 0.7403
vn -0.3013 -0.6354 0.7110
vn 0.2883 -0.6713 0.6828
vn -0.1106 0.0844 -0.9903
vn -0.0493 -0.9965 0.0675
vn 0.1922 -0.9732 -0.1265
vn 0.0449 -0.9986 0.0297
s 0
f 1//1 2//1 3//1
f 3//2 2//2 4//2
f 3//3 4//3 5//3
f 5//4 4//4 6//4
f 5//5 6//5 7//5
f 7//6 6//6 8//6
f 7//7 8//7 9//7
f 9//8 8//8 10//8
f 9//9 10//9 11//9
f 11//10 10//10 12//10
f 11//11 12//11 13//11
f 13//12 12//12 14//12
f 14//13 12//13 15//13
f 14//14 15//14 16//14
f 16//15 15//15 2//15
f 16//16 2//16 1//16
f 10//17 8//17 17//17
f 28//18 29//18 12//18
f 12//19 10//19 28//19
f 28//20 10//20 17//20
f 12//21 29//21 15//21
f 15//22 29//22 23//22
f 15//23 23//23 2//23
f 31//24 4//24 18//24
f 18//25 4//25 2//25
f 6//26 4//26 19//26
f 2//27 23//27 18//27
f 6//28 19//28 8//28
f 8//29 19//29 17//29
f 4//30 31//30 19//30
f 16//31 35//31 14//31
f 14//32 35//32 25//32
f 26//33 14//33 25//33
f 1//34 24//34 16//34
f 16//35 24//35 35//35
f 13//36 14//36 26//36
f 3//37 20//37 1//37
f 1//38 20//38 24//38
f 11//39 34//39 27//39
f 11//40 27//40 9//40
f 9//41 27//41 7//41
f 34//42 11//42 26//42
f 26//43 11//43 13//43
f 27//44 30//44 7//44
f 7//45 30//45 5//45
f 5//46 30//46 3//46
f 3//47 30//47 21//47
f 20//48 3//48 21//48
f 27//49 19//49 30//49
f 33//50 27//50 34//50
f 19//51 31//51 30//51
f 21//52 30//52 31//52
f 21//53 31//53 32//53
f 21//54 32//54 20//54
f 31//55 18//55 32//55
f 32//56 18//56 24//56
f 24//57 18//57 23//57
f 24//58 23//58 35//58
f 35//59 23//59 25//59
f 17//60 33//60 28//60
f 19//61 33//61 17//61
f 33//62 34//62 28//62
f 28//63 34//63 22//63
f 19//64 27//64 33//64
f 34//65 26//65 22//65
f 28//66 22//66 29//66
f 20//67 32//67 24//67
f 25//68 22//68 26//68
f 23//69 29//69 25//69
f 25//70 29//70 22//70
