# Blender 4.0.0
# www.blender.org
mtllib waist_constraint_L.mtl
o waist_constraint_L
v 0.002006 0.000386 0.006988
v -0.001993 -0.001906 0.006738
v 0.002007 -0.001904 0.006734
v 0.002007 -0.003988 0.005751
v -0.001994 -0.005641 0.004147
v 0.002006 -0.005640 0.004144
v 0.002004 -0.006680 0.002088
v -0.001998 -0.006998 -0.000191
v 0.002002 -0.006997 -0.000195
v 0.002000 -0.006555 -0.002456
v -0.002001 -0.006063 -0.003498
v 0.001997 -0.004596 -0.005281
v 0.001889 -0.001985 -0.005284
v 0.001994 -0.000385 -0.006991
v 0.001993 0.003990 -0.005754
v 0.001994 0.005641 -0.004147
v 0.001996 0.006682 -0.002091
v 0.001998 0.006998 0.000191
v 0.002000 0.006556 0.002453
v -0.001999 0.006061 0.003502
v 0.002003 0.004598 0.005277
v -0.002002 0.004516 -0.000772
v -0.001999 0.003593 0.002845
v -0.001995 -0.002153 0.004047
v -0.001997 0.001970 0.004139
v -0.001996 -0.003835 0.002511
v 0.001909 0.002423 0.004434
v -0.001763 0.001720 -0.004742
v -0.001318 -0.004759 0.000786
v -0.001483 -0.004061 -0.003195
v 0.001526 -0.005149 0.001326
v -0.001434 -0.001405 0.004754
v 0.001020 0.005368 -0.000750
v -0.002001 0.006812 0.001610
v 0.003005 0.002992 0.006326
v -0.001995 0.002703 0.006459
v -0.002003 -0.004567 -0.005303
v -0.002005 -0.002704 -0.006455
v -0.002007 0.001607 -0.006811
v 0.002993 0.001609 -0.006816
v -0.002006 0.005304 -0.004565
v -0.002005 0.006456 -0.002702
v -0.002003 0.006975 -0.000574
v 0.003089 -0.006859 0.054686
v 0.003057 -0.013091 0.055473
v 0.003057 -0.015118 0.054643
v 0.003056 -0.016789 0.053227
v 0.003012 -0.018808 0.049245
v 0.003048 -0.017466 0.045026
v 0.003046 -0.016050 0.043355
v 0.003045 -0.014187 0.042204
v 0.003043 -0.012060 0.041684
v 0.003094 -0.005784 0.043532
v -0.003455 -0.014493 0.038347
v -0.003447 -0.022113 0.048072
v -0.003371 -0.005798 0.043580
v -0.003506 -0.000099 -0.005996
v -0.003334 -0.003778 -0.009661
v -0.003495 0.001082 0.005905
v -0.003494 -0.002771 0.005326
v -0.003446 -0.004792 0.056378
v -0.003457 -0.001118 0.048234
v -0.003195 -0.004407 0.048425
v -0.003358 -0.017828 0.050254
v -0.003327 -0.015725 0.043421
v -0.003496 0.007225 -0.007789
v -0.003506 0.003606 -0.004791
v -0.003498 0.004478 0.003995
v -0.003620 0.009579 0.004066
v -0.003440 -0.014855 0.058763
v -0.003500 -0.010627 0.054888
v -0.003499 -0.009648 -0.003345
v -0.003499 -0.005841 -0.001375
v -0.003491 -0.008019 0.006515
v -0.003496 -0.005456 0.002502
v -0.003502 0.005985 0.000401
v -0.003486 0.002875 0.010178
v 0.003528 0.007287 0.005010
v 0.002843 -0.006806 0.007910
v 0.003076 0.002624 0.009250
v 0.003146 -0.013949 0.039066
v 0.003205 -0.004911 0.040735
v 0.003319 0.007699 -0.005382
v 0.003354 -0.005913 -0.007619
v 0.003356 -0.009466 0.000019
v 0.002087 0.009912 0.003786
v 0.002091 -0.000177 -0.010396
v 0.002092 -0.022048 0.045961
v 0.002064 -0.016701 0.057658
v 0.002091 -0.006288 0.057670
v 0.002075 -0.001110 0.048931
vn -0.1482 0.2963 0.9435
vn -0.1671 0.1860 0.9682
vn 0.0010 -0.1100 0.9939
vn 0.0008 -0.8530 0.5219
vn -0.1621 -0.4211 0.8924
vn -0.1669 -0.4478 0.8784
vn 0.0009 -0.6973 0.7168
vn 0.0003 -0.9937 -0.1121
vn -0.1623 -0.8804 0.4456
vn -0.1672 -0.8929 0.4182
vn 0.0005 -0.9905 0.1373
vn -0.0004 -0.7153 -0.6988
vn -0.1629 -0.9684 -0.1890
vn -0.1258 -0.9919 0.0149
vn 0.0713 -0.7681 -0.6364
vn -0.0027 -0.8218 -0.5698
vn 0.0010 -0.5258 -0.8506
vn 0.2861 0.0106 -0.9581
vn 0.3211 -0.7007 -0.6371
vn -0.1740 0.0728 -0.9821
vn -0.1850 -0.2866 -0.9400
vn -0.0010 0.0882 -0.9961
vn -0.0009 0.7104 -0.7038
vn -0.1852 0.3342 -0.9241
vn -0.1847 0.2882 -0.9396
vn 0.0161 0.6972 -0.7167
vn -0.0167 0.8505 -0.5257
vn 0.0186 0.8921 -0.4515
vn -0.0734 0.9907 0.1148
vn -0.1844 0.9736 -0.1348
vn -0.1811 0.9019 -0.3921
vn 0.0223 0.9812 0.1917
vn -0.0183 0.9294 0.3687
vn 0.2452 0.0688 0.9670
vn -0.1490 0.8125 0.5636
vn -0.1657 0.7494 0.6411
vn -0.0091 0.5429 0.8398
vn 0.0455 -0.3606 0.9316
vn -0.8696 -0.4895 -0.0643
vn -0.7800 -0.4418 -0.4432
vn -0.9987 -0.0360 -0.0348
vn -0.6804 0.1584 0.7155
vn -0.7383 0.6726 0.0501
vn -0.0876 -0.0551 0.9946
vn -0.7305 -0.6717 0.1228
vn -0.9966 -0.0697 0.0438
vn -0.1601 -0.7106 0.6851
vn -1.0000 -0.0004 0.0009
vn -0.5076 0.2215 -0.8326
vn -0.6954 -0.4484 -0.5616
vn -0.8512 -0.5002 0.1588
vn -0.8817 -0.3174 -0.3492
vn -0.6721 0.4995 -0.5466
vn -0.4387 0.8949 -0.0820
vn -0.6355 0.4626 -0.6182
vn -0.6768 0.7021 -0.2214
vn -0.6776 -0.2396 -0.6954
vn -0.7946 -0.4967 -0.3491
vn -0.7718 0.6333 -0.0576
vn -0.7687 0.2859 -0.5722
vn -0.9580 0.2203 0.1837
vn -0.9696 0.1280 0.2087
vn -0.9632 0.2553 0.0845
vn -0.0001 0.7150 0.6991
vn -0.5894 0.5420 0.5990
vn -0.6133 0.5704 -0.5464
vn 0.8296 0.1700 -0.5318
vn 0.9991 -0.0339 -0.0247
vn 0.9997 -0.0249 -0.0059
vn 0.8366 -0.4122 -0.3608
vn 0.9968 -0.0185 -0.0775
vn 0.8357 -0.5441 0.0747
vn 0.9994 0.0042 -0.0350
vn 0.8766 -0.4296 0.2167
vn 0.8802 -0.3318 -0.3393
vn 0.8571 -0.4012 -0.3233
vn 0.9592 0.2799 -0.0396
vn 0.7674 0.0369 0.6401
vn 0.9815 -0.0021 0.1914
vn 0.9375 -0.2429 0.2492
vn 0.9988 0.0414 0.0275
vn 0.9922 0.0822 0.0937
vn 0.9752 0.2172 0.0415
vn 0.9631 0.2400 -0.1222
vn 0.9907 0.0579 -0.1228
vn 0.9800 0.1384 -0.1427
vn -0.4814 0.3535 -0.8021
vn 0.1989 0.8944 -0.4006
vn 0.0032 0.6744 -0.7384
vn 0.0135 0.6809 -0.7323
vn 0.0931 -0.1633 -0.9822
vn 0.1303 -0.6179 -0.7754
vn 0.1029 0.9805 0.1675
vn -0.2875 0.8699 0.4007
vn 0.3907 0.2556 0.8843
vn -0.0642 -0.8724 -0.4845
vn -0.4090 -0.5135 0.7544
vn 0.2650 -0.9343 -0.2386
vn 0.2188 -0.7915 0.5706
vn -0.0477 -0.8209 -0.5691
vn 0.2104 -0.4666 -0.8591
vn 0.2131 -0.4377 -0.8735
vn 0.0305 -0.8020 -0.5965
vn -0.0117 -0.2418 -0.9703
vn 0.2081 0.1384 -0.9683
vn 0.2051 0.1077 -0.9728
vn -0.0008 -0.2690 -0.9632
vn -0.0010 0.4268 -0.9043
vn 0.2101 0.7181 -0.6635
vn 0.2052 0.6824 -0.7016
vn -0.0010 0.3793 -0.9253
vn -0.0008 0.8923 -0.4515
vn 0.2106 0.9741 -0.0826
vn 0.2056 0.9693 -0.1346
vn -0.0008 0.8677 -0.4972
vn -0.0473 0.8208 0.5692
vn 0.0020 0.7701 0.6380
vn 0.4678 0.8581 -0.2117
vn 0.1675 -0.0766 0.9829
vn 0.1742 -0.0686 0.9823
vn 0.3767 0.2859 0.8811
vn 0.3270 -0.9181 0.2239
vn -0.2046 -0.9089 -0.3633
vn -0.1010 -0.9921 -0.0741
vn 0.0944 -0.9861 0.1366
vn 0.3685 -0.6784 -0.6356
vn 0.0414 -0.1255 -0.9912
vn 0.2196 0.3699 -0.9028
vn 0.3241 0.5164 -0.7926
vn 0.2415 0.6273 -0.7404
vn 0.0653 0.8896 -0.4520
vn 0.1902 0.9381 0.2896
vn 0.1804 0.9368 0.2996
vn 0.0455 0.7621 0.6458
vn 0.0356 0.5255 0.8501
vn 0.1273 0.2353 0.9635
vn 0.2706 -0.0142 0.9626
vn 0.0077 -0.2825 0.9592
vn 0.0042 -0.9612 0.2759
vn -0.2809 -0.9553 -0.0922
vn -0.9983 0.0451 0.0362
vn -0.7271 -0.5013 0.4691
vn -0.9274 0.1961 0.3186
vn -0.1984 0.9520 0.2331
vn -0.9994 0.0172 -0.0306
vn -0.9961 -0.0813 -0.0353
vn -0.9998 0.0199 0.0015
vn -0.9162 0.2572 0.3074
vn -0.8837 -0.2971 -0.3616
vn 0.2498 0.2299 0.9406
vn -0.9992 -0.0082 -0.0387
vn -1.0000 0.0054 0.0034
vn -0.9996 -0.0260 -0.0066
vn -0.9954 -0.0759 0.0578
vn -0.9993 0.0311 -0.0204
vn -0.9998 -0.0175 -0.0035
vn -0.9998 0.0042 0.0202
vn -0.9998 0.0092 -0.0177
vn -0.8651 0.3439 -0.3651
vn -0.7497 -0.6505 0.1213
vn -1.0000 -0.0003 0.0022
vn -1.0000 0.0002 0.0020
vn -0.9997 -0.0048 0.0241
vn -1.0000 0.0081 0.0028
vn -1.0000 -0.0006 0.0033
vn 0.3059 0.4063 -0.8610
vn 1.0000 0.0004 -0.0009
vn 0.9994 0.0086 0.0329
vn 0.9637 0.2655 -0.0270
vn 0.8820 0.0521 -0.4683
vn 0.9256 -0.3722 -0.0693
vn 0.4009 -0.3126 -0.8612
vn 0.9993 -0.0181 0.0339
vn 0.9424 0.0242 -0.3335
vn 0.9996 -0.0225 -0.0149
vn 1.0000 -0.0055 -0.0054
vn 0.9986 -0.0158 0.0506
vn 0.4906 -0.8703 -0.0443
vn 0.8683 -0.3461 0.3553
vn 0.3951 -0.2305 0.8892
vn 0.0338 -0.1045 0.9940
vn 0.8489 0.4794 0.2228
vn 0.7536 0.5863 -0.2972
vn -0.2089 0.6820 -0.7009
vn 0.8696 0.4847 0.0938
vn 0.8774 0.4751 -0.0666
vn 0.1341 0.6060 0.7841
vn -0.0030 0.6737 0.7390
vn -0.0667 0.9785 -0.1950
vn 0.0147 0.9724 -0.2328
vn 0.2600 0.4894 -0.8324
vn -0.2358 0.1597 -0.9586
vn 0.1464 -0.4048 -0.9026
vn -0.0257 -0.7319 -0.6809
vn 0.2252 -0.8834 -0.4110
vn -0.0537 -0.9852 0.1629
vn 0.1086 -0.9398 0.3239
vn 0.1350 -0.6524 -0.7457
vn -0.2203 -0.7679 -0.6015
vn 0.1669 -0.8966 0.4103
vn -0.1625 -0.8163 0.5543
vn 0.1964 -0.0016 0.9805
vn -0.1625 0.2275 0.9601
vn 0.1128 0.8549 0.5064
vn -0.0531 0.9102 0.4107
vn 0.0508 0.9086 -0.4145
vn -0.3738 0.6505 -0.6611
vn 0.0700 0.9702 0.2319
vn -0.0218 0.9677 0.2514
vn 0.1042 -0.9692 -0.2232
vn 0.2256 -0.9546 -0.1944
vn 0.9573 0.0757 -0.2789
vn 0.9689 0.0063 -0.2473
vn 0.8764 0.4816 0.0015
vn 0.4644 0.5707 0.6772
vn 0.9903 -0.1330 -0.0408
vn 0.9890 0.1252 0.0782
vn 0.9812 0.1920 0.0189
vn 0.8952 0.3841 0.2260
vn 0.9482 -0.0029 0.3177
vn 0.8698 0.0573 0.4901
vn 0.9597 -0.1066 0.2601
vn 0.9581 -0.1853 0.2182
vn 0.8733 -0.4423 0.2043
vn 0.8478 -0.4766 0.2325
vn 0.9746 -0.2158 -0.0603
vn 0.9490 -0.2399 -0.2045
vn 0.9802 -0.1856 -0.0682
vn 0.9992 0.0219 0.0339
vn 0.5440 0.4677 0.6967
vn 0.9417 0.2266 0.2488
vn 0.1300 -0.9651 -0.2273
vn -0.4089 -0.0753 -0.9095
vn 0.6690 0.1174 -0.7339
vn -0.3685 0.9251 -0.0915
vn -0.5869 0.5462 -0.5977
vn -0.6633 0.5424 -0.5155
vn 0.7406 -0.3737 -0.5584
vn -0.7817 0.0925 -0.6168
vn -0.4831 -0.5461 -0.6844
vn -0.6917 -0.3545 -0.6292
vn -0.6801 -0.2631 -0.6843
vn 0.6340 -0.7129 -0.2997
vn 0.6624 -0.6374 0.3935
vn 0.7132 0.5403 0.4467
vn 0.5876 0.6653 0.4606
vn 0.8033 -0.4890 -0.3400
vn -0.2758 -0.9434 -0.1840
vn 0.7400 -0.6663 0.0917
s 0
f 35//1 59//1 1//1
f 1//2 59//2 2//2
f 1//3 2//3 3//3
f 3//4 2//4 60//4
f 3//5 60//5 4//5
f 4//6 60//6 5//6
f 4//7 5//7 6//7
f 6//8 5//8 75//8
f 6//9 75//9 7//9
f 7//10 75//10 8//10
f 7//11 8//11 9//11
f 9//12 8//12 73//12
f 9//13 73//13 10//13
f 10//14 73//14 11//14
f 10//15 11//15 37//15
f 10//16 37//16 12//16
f 12//17 37//17 38//17
f 12//18 38//18 13//18
f 13//19 38//19 14//19
f 14//20 38//20 57//20
f 14//21 57//21 39//21
f 14//22 39//22 40//22
f 40//23 39//23 67//23
f 40//24 67//24 15//24
f 15//25 67//25 41//25
f 15//26 41//26 16//26
f 16//27 41//27 42//27
f 16//28 42//28 17//28
f 17//29 42//29 76//29
f 17//30 76//30 18//30
f 18//31 76//31 34//31
f 18//32 34//32 19//32
f 19//33 34//33 20//33
f 19//34 20//34 68//34
f 19//35 68//35 21//35
f 21//36 68//36 36//36
f 21//37 36//37 35//37
f 35//38 36//38 59//38
f 57//39 38//39 30//39
f 76//40 42//40 22//40
f 42//41 28//41 22//41
f 30//42 28//42 57//42
f 57//43 28//43 39//43
f 41//44 67//44 28//44
f 28//45 67//45 39//45
f 41//46 28//46 42//46
f 76//47 22//47 34//47
f 34//48 22//48 23//48
f 34//48 23//48 20//48
f 20//49 23//49 68//49
f 68//50 23//50 25//50
f 68//51 25//51 36//51
f 26//52 5//52 60//52
f 26//53 60//53 24//53
f 24//54 60//54 2//54
f 8//55 75//55 29//55
f 36//56 25//56 59//56
f 59//57 25//57 32//57
f 59//58 32//58 2//58
f 2//59 32//59 24//59
f 73//60 30//60 11//60
f 11//61 30//61 37//61
f 37//62 30//62 38//62
f 8//63 29//63 30//63
f 8//64 30//64 73//64
f 5//65 26//65 75//65
f 75//66 26//66 29//66
f 35//67 27//67 21//67
f 21//68 27//68 19//68
f 27//69 18//69 19//69
f 1//70 27//70 35//70
f 31//71 27//71 3//71
f 17//72 18//72 33//72
f 3//73 27//73 1//73
f 17//74 33//74 16//74
f 18//75 27//75 33//75
f 40//76 13//76 14//76
f 7//77 9//77 31//77
f 13//78 40//78 15//78
f 13//79 15//79 33//79
f 33//80 15//80 16//80
f 12//81 13//81 10//81
f 10//82 13//82 31//82
f 10//83 31//83 9//83
f 7//84 31//84 6//84
f 3//85 4//85 31//85
f 31//86 4//86 6//86
f 31//87 32//87 27//87
f 31//88 29//88 26//88
f 31//89 26//89 24//89
f 31//90 24//90 32//90
f 32//91 25//91 27//91
f 27//92 25//92 23//92
f 29//93 31//93 30//93
f 30//94 31//94 13//94
f 30//95 13//95 28//95
f 27//96 23//96 33//96
f 13//97 33//97 28//97
f 23//98 22//98 33//98
f 28//99 33//99 22//99
f 20//100 19//100 21//100
f 20//101 21//101 68//101
f 21//102 35//102 68//102
f 68//103 35//103 36//103
f 36//104 35//104 1//104
f 36//105 1//105 59//105
f 59//106 1//106 3//106
f 59//107 3//107 2//107
f 2//108 3//108 4//108
f 2//109 4//109 60//109
f 60//110 4//110 6//110
f 60//111 6//111 5//111
f 5//112 6//112 7//112
f 5//113 7//113 75//113
f 75//114 7//114 9//114
f 75//115 9//115 8//115
f 11//116 10//116 12//116
f 11//117 12//117 37//117
f 12//118 84//118 38//118
f 38//119 84//119 57//119
f 84//120 14//120 57//120
f 42//121 16//121 83//121
f 42//122 83//122 43//122
f 83//123 17//123 43//123
f 43//124 17//124 34//124
f 34//125 17//125 18//125
f 63//126 44//126 71//126
f 44//127 45//127 71//127
f 71//128 45//128 46//128
f 71//129 46//129 64//129
f 64//130 46//130 47//130
f 64//131 47//131 48//131
f 64//132 48//132 65//132
f 65//133 48//133 49//133
f 49//134 50//134 65//134
f 65//135 50//135 51//135
f 65//136 51//136 52//136
f 65//137 52//137 56//137
f 52//138 53//138 56//138
f 56//139 53//139 63//139
f 63//140 53//140 44//140
f 65//141 54//141 55//141
f 57//142 58//142 38//142
f 38//143 58//143 37//143
f 37//144 58//144 73//144
f 59//48 60//48 74//48
f 74//48 60//48 75//48
f 71//145 61//145 63//145
f 63//146 61//146 62//146
f 65//147 55//147 64//147
f 42//148 66//148 67//148
f 67//149 66//149 39//149
f 39//150 66//150 57//150
f 57//151 66//151 58//151
f 68//152 77//152 76//152
f 76//153 77//153 69//153
f 56//154 63//154 62//154
f 55//155 70//155 64//155
f 64//156 70//156 71//156
f 71//157 70//157 61//157
f 58//158 72//158 73//158
f 73//48 72//48 74//48
f 73//48 74//48 75//48
f 76//159 69//159 42//159
f 42//160 69//160 66//160
f 59//161 74//161 77//161
f 59//162 77//162 68//162
f 65//163 56//163 54//163
f 54//164 56//164 74//164
f 74//165 56//165 77//165
f 80//166 4//166 3//166
f 46//48 45//48 47//48
f 51//167 49//167 50//167
f 51//48 50//48 52//48
f 52//168 51//168 81//168
f 79//169 85//169 4//169
f 80//170 3//170 1//170
f 80//171 1//171 35//171
f 78//172 35//172 21//172
f 82//173 53//173 52//173
f 79//174 4//174 80//174
f 79//175 80//175 81//175
f 81//176 80//176 82//176
f 81//177 82//177 52//177
f 78//178 19//178 83//178
f 83//179 16//179 15//179
f 83//180 15//180 40//180
f 40//181 14//181 84//181
f 84//182 12//182 85//182
f 85//183 7//183 6//183
f 85//184 6//184 4//184
f 85//185 10//185 9//185
f 85//186 9//186 7//186
f 77//187 80//187 86//187
f 77//188 86//188 69//188
f 69//189 86//189 66//189
f 66//190 86//190 83//190
f 66//191 83//191 87//191
f 66//192 87//192 58//192
f 58//193 87//193 84//193
f 58//194 84//194 72//194
f 72//195 84//195 85//195
f 72//196 85//196 74//196
f 74//197 85//197 79//197
f 54//198 81//198 88//198
f 54//199 88//199 55//199
f 55//200 88//200 89//200
f 55//201 89//201 70//201
f 70//202 89//202 90//202
f 70//203 90//203 61//203
f 61//204 90//204 91//204
f 61//205 91//205 62//205
f 62//206 91//206 82//206
f 62//207 82//207 56//207
f 80//208 77//208 82//208
f 82//209 77//209 56//209
f 81//210 54//210 79//210
f 79//211 54//211 74//211
f 84//212 87//212 40//212
f 40//213 87//213 83//213
f 83//214 86//214 78//214
f 78//215 86//215 80//215
f 78//216 80//216 35//216
f 53//217 82//217 91//217
f 53//218 91//218 44//218
f 44//219 91//219 90//219
f 44//220 90//220 89//220
f 44//221 89//221 45//221
f 45//222 89//222 46//222
f 46//223 89//223 47//223
f 47//224 89//224 88//224
f 47//225 88//225 48//225
f 48//226 88//226 49//226
f 49//227 88//227 50//227
f 50//228 88//228 81//228
f 50//229 81//229 51//229
f 42//167 43//167 22//167
f 22//167 43//167 34//167
f 25//230 59//230 2//230
f 26//231 5//231 29//231
f 29//232 5//232 75//232
f 39//233 38//233 57//233
f 8//234 73//234 29//234
f 29//235 73//235 75//235
f 26//236 75//236 24//236
f 24//237 75//237 60//237
f 2//238 60//238 25//238
f 25//239 60//239 59//239
f 25//240 59//240 23//240
f 23//241 59//241 68//241
f 23//242 68//242 34//242
f 34//243 68//243 76//243
f 41//244 42//244 67//244
f 11//245 37//245 73//245
f 85//246 12//246 10//246
f 7//167 9//167 6//167
f 6//167 7//167 4//167
f 21//247 19//247 78//247
f 19//248 18//248 83//248
f 83//249 18//249 17//249
