# Blender 4.0.0
# www.blender.org
mtllib waist_constraint_R.mtl
o waist_constraint_R
v -0.003348 0.005315 0.046668
v -0.003160 0.005692 0.051997
v -0.001799 0.008781 0.042018
v 0.003030 0.015377 0.042851
v 0.003030 0.016917 0.044260
v -0.003304 0.017878 0.047152
v 0.003314 0.018920 0.049511
v 0.003038 0.016779 0.053231
v 0.003041 0.015108 0.054646
v 0.003042 0.013081 0.055476
v 0.003110 0.008530 0.055045
v -0.001997 -0.006977 -0.000576
v -0.001995 -0.006814 0.001608
v -0.001999 -0.006457 -0.002703
v 0.002993 0.005443 -0.004406
v -0.001997 0.003632 0.005985
v -0.001994 -0.005984 0.003635
v -0.003497 0.007166 0.007799
v -0.003506 0.010399 -0.000140
v -0.003504 0.005838 -0.001374
v -0.003499 0.004345 0.004139
v -0.003458 0.016733 0.057642
v -0.003468 0.021874 0.048636
v -0.003464 0.013674 0.042611
v -0.003500 -0.004970 -0.003361
v -0.003878 -0.009527 0.001137
v -0.003494 -0.004483 0.003993
v -0.003511 0.005107 -0.009058
v -0.003506 0.003761 -0.004670
v -0.003452 0.007614 0.058124
v -0.003566 0.013901 0.054483
v -0.003456 0.000942 0.050223
v -0.003494 -0.001087 0.005904
v -0.003489 -0.004264 0.009411
v -0.003505 0.000097 -0.005996
v -0.003504 -0.006553 -0.008386
v -0.003473 0.015734 0.039261
v -0.003466 0.004304 0.040873
v 0.003069 0.008715 -0.004288
v 0.003505 -0.008459 0.000810
v 0.003252 -0.008042 -0.005100
v 0.003495 -0.003008 -0.007952
v 0.003493 -0.000856 -0.008460
v 0.003216 0.006496 0.006816
v 0.003528 0.013896 0.040195
v 0.002806 0.002268 0.046410
v 0.003222 -0.002817 0.009106
v 0.003232 0.001386 -0.009619
v 0.003508 -0.006928 0.004919
v 0.003507 -0.007963 0.002965
v 0.003282 0.011533 0.040992
v 0.002916 0.004883 0.044485
v 0.002066 0.002183 0.053333
v 0.002054 0.010822 0.059044
v 0.002106 0.020861 0.053319
v 0.001939 0.020731 0.043857
v 0.002071 0.014408 0.038494
v 0.002022 0.010071 0.001686
v 0.002062 -0.009245 0.004740
v -0.001995 0.000889 0.005935
v 0.002006 0.000430 0.006985
v 0.002007 -0.001862 0.006746
v -0.001993 -0.003954 0.005779
v 0.002007 -0.003952 0.005775
v 0.002007 -0.005614 0.004179
v 0.002005 -0.006667 0.002129
v 0.001553 -0.005673 -0.000261
v 0.002000 -0.006083 -0.003464
v -0.002002 -0.004631 -0.005248
v 0.001997 -0.003701 -0.005942
v -0.002005 -0.001574 -0.006819
v 0.001994 -0.000428 -0.006989
v -0.002007 0.001862 -0.006746
v 0.001993 0.001864 -0.006749
v 0.001993 0.003954 -0.005779
v -0.002007 0.005614 -0.004179
v 0.001995 0.006669 -0.002133
v -0.002004 0.006997 0.000151
v 0.001996 0.006999 0.000148
v -0.002001 0.006570 0.002416
v 0.001999 0.006572 0.002412
v 0.002001 0.005432 0.004415
v 0.002004 0.002675 0.006467
v -0.001758 -0.002163 -0.004475
v -0.002003 0.004478 -0.000968
v -0.002001 0.004428 0.001179
v -0.001997 0.001933 0.004156
v -0.001995 -0.001102 0.004450
v -0.001998 -0.004583 0.000050
v -0.001996 -0.004051 0.002146
v 0.001874 0.004695 -0.001806
v 0.001782 0.000271 -0.005039
v 0.001431 0.003650 0.003673
v -0.001262 0.003693 -0.003125
v 0.001439 -0.002731 0.004403
vn 0.4397 0.8947 -0.0787
vn 0.3076 0.5559 0.7723
vn 0.3239 0.4259 0.8448
vn -0.3376 0.8052 0.4876
vn 0.2202 -0.0432 0.9745
vn 0.0795 -0.4299 0.8994
vn 0.1481 -0.6675 0.7297
vn 0.1929 -0.7234 0.6630
vn 0.0204 -0.9345 0.3553
vn 0.2926 -0.8449 -0.4479
vn 0.2787 -0.8412 -0.4633
vn 0.1357 -0.6403 -0.7561
vn 0.0917 -0.3772 -0.9216
vn 0.1596 0.0955 -0.9826
vn -0.0823 0.8082 -0.5832
vn 0.1367 0.9879 -0.0738
vn 0.6033 -0.2475 0.7582
vn -0.0458 0.9704 0.2372
vn 0.1168 0.4979 0.8593
vn 0.1569 0.7123 0.6842
vn -0.2273 0.9738 -0.0054
vn 0.0941 0.3031 0.9483
vn -0.0929 0.4550 0.8856
vn 0.1360 -0.3368 0.9317
vn 0.1672 -0.1023 0.9806
vn 0.0006 0.3905 0.9206
vn 0.0010 -0.4212 0.9070
vn 0.1703 -0.6626 0.7293
vn 0.1604 -0.7251 0.6697
vn 0.0340 -0.2820 0.9588
vn -0.0086 -0.8818 0.4716
vn 0.1699 -0.9710 0.1684
vn 0.1947 -0.8637 0.4650
vn 0.0006 -0.9897 0.1435
vn 0.0004 -0.9826 -0.1856
vn -0.0004 -0.6122 -0.7907
vn 0.1929 -0.8527 -0.4855
vn 0.1928 -0.8524 -0.4860
vn -0.0461 -0.5966 -0.8012
vn 0.1239 0.0180 -0.9921
vn 0.1856 -0.1254 -0.9746
vn 0.1426 -0.0606 -0.9879
vn 0.1679 0.1306 -0.9771
vn -0.0010 0.4212 -0.9070
vn -0.0008 0.9590 -0.2833
vn 0.1645 0.6834 -0.7113
vn 0.0981 0.3228 -0.9414
vn -0.0203 0.8893 -0.4569
vn 0.0152 0.9253 -0.3789
vn 0.0771 0.6321 -0.7711
vn 0.2934 0.9544 0.0549
vn -1.0000 -0.0005 0.0009
vn -0.9996 0.0225 0.0140
vn -0.9986 -0.0232 -0.0483
vn -0.9998 -0.0177 -0.0080
vn -0.9978 0.0636 -0.0193
vn -0.9986 -0.0386 -0.0355
vn -0.9994 0.0012 0.0332
vn -0.9993 0.0359 0.0140
vn -0.9970 0.0772 -0.0023
vn -0.9905 -0.0819 0.1108
vn -1.0000 -0.0018 0.0017
vn -0.9982 0.0503 0.0317
vn -0.9931 0.0901 -0.0756
vn -0.9998 0.0022 0.0199
vn 0.8974 0.3187 0.3050
vn 0.6129 0.3177 0.7235
vn 0.9886 0.0352 0.1463
vn -0.7144 -0.1611 -0.6810
vn 0.6875 -0.0751 0.7223
vn 0.5622 -0.8095 -0.1692
vn 0.8673 -0.4323 -0.2470
vn 0.7406 -0.1505 -0.6549
vn 0.8973 0.2807 0.3406
vn 0.8887 -0.1930 0.4158
vn 0.2956 -0.7473 0.5951
vn 0.9077 -0.0361 0.4182
vn 0.9082 -0.4143 0.0593
vn 0.6251 -0.7668 -0.1455
vn 0.8957 0.0466 -0.4421
vn 0.9024 0.1816 -0.3909
vn 0.6900 0.5703 -0.4458
vn 0.9854 0.1504 -0.0803
vn 0.9986 -0.0519 0.0057
vn 1.0000 0.0026 0.0081
vn 0.7178 -0.1658 -0.6762
vn 0.9037 -0.2551 -0.3440
vn 1.0000 0.0005 -0.0009
vn 0.8875 -0.3112 0.3399
vn 0.9787 -0.0339 0.2025
vn 0.4508 -0.5414 -0.7097
vn -0.0067 -0.9410 -0.3384
vn 0.2134 -0.9769 0.0108
vn -0.1884 -0.7503 0.6337
vn 0.1788 -0.5423 0.8209
vn -0.1938 0.0516 0.9797
vn 0.2951 0.4722 0.8306
vn -0.2506 0.8406 0.4801
vn 0.1924 0.9812 -0.0169
vn -0.2937 0.7997 -0.5236
vn 0.0494 0.6466 -0.7612
vn 0.1614 0.8270 0.5386
vn -0.0694 0.9239 0.3763
vn 0.1235 0.9722 -0.1989
vn -0.1012 0.8556 -0.5077
vn 0.2513 0.5729 -0.7801
vn -0.1141 -0.0573 -0.9918
vn 0.3250 -0.4082 -0.8531
vn -0.0639 -0.9519 -0.2997
vn 0.1120 -0.9879 -0.1073
vn -0.2800 -0.8040 0.5246
vn 0.1603 -0.5743 0.8028
vn -0.0316 -0.9767 0.2123
vn 0.2148 -0.9424 0.2565
vn 0.0615 0.9689 -0.2397
vn 0.1908 0.9471 -0.2581
vn 0.7424 0.4423 -0.5032
vn 0.9795 0.1844 0.0810
vn 0.9347 0.2398 -0.2625
vn 0.9546 0.2574 -0.1498
vn 0.8286 0.5594 -0.0224
vn 0.9572 0.2144 0.1943
vn 0.9458 0.2107 0.2473
vn 0.8704 0.2405 0.4296
vn 0.9268 0.1430 0.3472
vn 0.9653 -0.0104 0.2608
vn 0.8918 -0.2486 0.3779
vn 0.9768 -0.1882 0.1021
vn 0.6788 -0.2974 -0.6714
vn 0.9360 0.3480 -0.0531
vn 0.7058 -0.4808 0.5203
vn 0.8053 -0.5241 0.2772
vn 0.7515 -0.6431 0.1475
vn 0.2996 -0.9507 -0.0800
vn -0.8423 -0.2344 -0.4854
vn 0.9210 -0.0887 -0.3793
vn 0.9975 -0.0255 0.0655
vn 0.9126 0.4030 0.0685
vn 0.6250 0.4768 0.6181
vn 0.5472 -0.2293 -0.8049
vn 0.8911 0.4282 0.1506
vn 0.6075 0.7491 0.2644
vn 0.6690 0.7431 0.0166
vn 0.7759 -0.2336 -0.5860
vn 0.8670 -0.2492 0.4315
vn 0.7641 0.4725 -0.4392
vn 0.6108 -0.4735 0.6346
vn 0.6621 0.3170 0.6790
vn 0.3052 -0.9520 0.0252
vn -0.6763 -0.7358 0.0351
vn -0.3655 -0.7875 0.4963
vn 0.6568 -0.2564 0.7091
vn 0.7063 0.3241 0.6293
vn 0.7115 0.3247 0.6231
vn 0.7291 0.5657 -0.3853
vn -0.8552 0.3982 0.3316
vn -0.9373 0.3378 -0.0851
vn -0.7638 0.3610 -0.5350
vn 0.7751 -0.2663 -0.5730
vn -0.6434 0.3754 -0.6672
vn 0.7536 -0.5665 -0.3334
vn -0.4373 -0.2783 -0.8552
vn -0.4198 -0.8762 -0.2369
vn 0.8558 0.2354 0.4607
vn 0.3092 0.2895 -0.9058
vn 0.7158 0.5599 -0.4173
vn 0.7147 0.2134 0.6661
vn 0.6950 0.7006 -0.1618
vn -0.1645 -0.1025 0.9810
vn -0.1768 -0.7571 0.6289
vn -0.0267 -0.8891 0.4569
vn 0.0271 -0.9969 0.0743
vn 0.3459 -0.8414 -0.4153
vn 0.3535 -0.9086 -0.2224
vn 0.1191 -0.9826 0.1422
vn -0.1936 -0.9273 -0.3203
vn 0.0473 -0.7202 -0.6921
vn -0.0481 -0.4566 -0.8884
vn 0.0468 -0.3040 -0.9515
vn -0.1945 -0.2390 -0.9513
vn -0.0009 0.1039 -0.9946
vn -0.0010 0.7374 -0.6754
vn -0.1939 0.4132 -0.8898
vn -0.1948 0.3958 -0.8974
vn -0.0100 0.6814 -0.7318
vn 0.0311 0.9975 -0.0632
vn -0.1978 0.8239 -0.5311
vn -0.2240 0.2188 0.9497
vn -0.2330 0.1616 0.9589
vn -0.8540 -0.0470 0.5181
vn -0.5238 -0.3460 0.7784
vn -0.1327 0.4808 0.8667
vn -0.2606 -0.0450 0.9644
vn -0.8809 -0.2727 -0.3868
vn -0.7747 -0.4852 -0.4054
vn -0.7846 0.1182 -0.6086
vn -0.7790 0.2566 -0.5722
vn -0.9910 0.0605 0.1197
vn -0.7613 -0.6433 -0.0814
vn -0.7768 -0.5066 -0.3742
vn -0.9986 0.0439 -0.0294
vn -0.0257 0.3824 0.9236
vn 0.9455 -0.1937 -0.2616
vn 0.9584 -0.2476 -0.1420
vn 0.9693 0.0260 -0.2445
vn 0.9815 -0.0205 -0.1904
vn 0.9748 -0.0494 -0.2173
vn 0.9516 0.1295 -0.2787
vn 0.9775 -0.2073 -0.0401
vn 0.9927 -0.1041 0.0603
vn 0.9982 -0.0599 0.0079
vn 0.9959 -0.0658 0.0617
vn 0.9936 -0.0113 0.1122
vn 0.9948 0.0318 0.0969
vn 0.9174 0.0096 0.3978
vn 0.9993 -0.0151 0.0328
vn 0.7562 -0.6388 0.1418
vn 0.9954 0.0335 0.0894
vn 0.9844 0.1276 0.1212
vn 0.9747 0.1991 -0.1019
vn 0.9553 0.2047 -0.2133
vn 0.9744 0.1998 -0.1033
vn 0.0509 -0.9984 -0.0232
vn 0.2660 0.9343 -0.2375
vn 0.2814 -0.7354 -0.6165
vn -0.2983 0.6050 0.7383
vn 0.0252 0.8458 -0.5330
vn -0.0592 -0.0962 -0.9936
vn -0.0827 -0.1134 -0.9901
vn 0.2707 0.5927 -0.7586
vn 0.2970 0.8354 0.4625
vn 0.3106 -0.2383 0.9202
vn -0.1509 -0.5813 0.7996
vn -0.0814 -0.9778 -0.1931
vn 0.1331 -0.9159 0.3788
s 0
f 46//1 1//1 2//1
f 46//2 52//2 1//2
f 1//3 52//3 51//3
f 1//4 51//4 3//4
f 3//5 51//5 24//5
f 51//6 4//6 24//6
f 24//7 4//7 5//7
f 24//8 5//8 6//8
f 6//9 5//9 7//9
f 6//10 7//10 31//10
f 7//11 8//11 31//11
f 8//12 9//12 31//12
f 31//13 9//13 10//13
f 10//14 11//14 31//14
f 11//15 46//15 2//15
f 41//16 12//16 13//16
f 12//17 41//17 68//17
f 12//18 68//18 14//18
f 14//19 68//19 25//19
f 25//20 68//20 70//20
f 25//21 70//21 69//21
f 69//22 70//22 72//22
f 69//23 72//23 71//23
f 71//24 72//24 35//24
f 35//25 72//25 74//25
f 35//26 74//26 73//26
f 73//27 74//27 75//27
f 73//28 75//28 29//28
f 29//29 75//29 15//29
f 29//30 15//30 76//30
f 76//31 15//31 77//31
f 76//32 77//32 20//32
f 20//33 77//33 78//33
f 77//34 79//34 78//34
f 78//35 79//35 81//35
f 78//35 81//35 80//35
f 80//36 81//36 21//36
f 81//37 82//37 21//37
f 21//38 82//38 16//38
f 82//39 83//39 16//39
f 16//40 83//40 60//40
f 60//41 83//41 33//41
f 83//42 62//42 33//42
f 33//43 62//43 63//43
f 62//44 64//44 63//44
f 63//45 64//45 27//45
f 64//46 65//46 27//46
f 27//47 65//47 17//47
f 65//48 66//48 17//48
f 17//49 66//49 13//49
f 13//50 66//50 40//50
f 13//51 40//51 41//51
f 18//52 19//52 20//52
f 31//53 22//53 23//53
f 31//54 23//54 6//54
f 1//55 24//55 37//55
f 25//56 36//56 26//56
f 20//52 19//52 29//52
f 29//52 19//52 28//52
f 29//52 28//52 35//52
f 18//52 20//52 21//52
f 2//57 30//57 31//57
f 31//58 30//58 22//58
f 1//59 38//59 32//59
f 21//52 33//52 34//52
f 34//52 33//52 27//52
f 34//60 27//60 26//60
f 35//52 28//52 36//52
f 35//52 36//52 25//52
f 6//61 23//61 24//61
f 24//62 23//62 37//62
f 1//63 32//63 2//63
f 2//64 32//64 30//64
f 1//65 37//65 38//65
f 21//52 34//52 18//52
f 18//52 34//52 37//52
f 37//52 34//52 38//52
f 68//66 41//66 70//66
f 70//67 41//67 43//67
f 43//68 41//68 42//68
f 43//69 42//69 72//69
f 72//70 43//70 74//70
f 81//71 39//71 44//71
f 81//72 44//72 82//72
f 47//73 61//73 83//73
f 43//74 48//74 74//74
f 74//75 48//75 75//75
f 75//76 48//76 15//76
f 77//77 15//77 39//77
f 77//78 39//78 79//78
f 79//79 39//79 81//79
f 61//80 47//80 62//80
f 62//81 47//81 64//81
f 64//82 47//82 50//82
f 50//83 47//83 49//83
f 50//52 49//52 40//52
f 51//84 52//84 44//84
f 44//85 52//85 47//85
f 44//86 47//86 83//86
f 44//87 83//87 82//87
f 9//88 10//88 8//88
f 45//89 5//89 4//89
f 45//90 4//90 51//90
f 38//91 52//91 46//91
f 38//92 46//92 32//92
f 32//93 46//93 53//93
f 32//94 53//94 30//94
f 30//95 53//95 54//95
f 30//96 54//96 22//96
f 22//97 54//97 55//97
f 22//98 55//98 23//98
f 23//99 55//99 56//99
f 23//100 56//100 37//100
f 37//101 56//101 57//101
f 18//102 44//102 58//102
f 18//103 58//103 19//103
f 19//104 58//104 39//104
f 19//105 39//105 28//105
f 28//106 39//106 48//106
f 28//107 48//107 36//107
f 36//108 48//108 41//108
f 36//109 41//109 26//109
f 26//110 41//110 59//110
f 26//111 59//111 34//111
f 34//112 59//112 47//112
f 52//113 38//113 47//113
f 47//114 38//114 34//114
f 44//115 18//115 57//115
f 57//116 18//116 37//116
f 45//117 57//117 56//117
f 45//118 56//118 4//118
f 4//119 56//119 5//119
f 5//120 56//120 7//120
f 7//121 56//121 55//121
f 7//122 55//122 8//122
f 8//123 55//123 9//123
f 9//124 55//124 54//124
f 9//125 54//125 10//125
f 10//126 54//126 11//126
f 11//127 54//127 53//127
f 11//128 53//128 46//128
f 57//129 45//129 51//129
f 51//130 44//130 57//130
f 47//131 59//131 49//131
f 49//132 59//132 50//132
f 50//133 59//133 40//133
f 40//134 59//134 41//134
f 41//135 48//135 42//135
f 42//136 48//136 43//136
f 48//137 39//137 15//137
f 39//138 58//138 44//138
f 27//139 17//139 90//139
f 90//88 17//88 13//88
f 90//88 13//88 89//88
f 89//88 13//88 12//88
f 89//88 12//88 14//88
f 94//140 29//140 76//140
f 94//141 76//141 85//141
f 85//142 76//142 20//142
f 85//143 20//143 86//143
f 86//144 20//144 78//144
f 86//88 78//88 80//88
f 86//145 80//145 21//145
f 87//146 21//146 16//146
f 87//88 16//88 60//88
f 88//147 60//147 33//147
f 88//148 33//148 63//148
f 90//149 63//149 27//149
f 85//150 20//150 94//150
f 94//151 20//151 29//151
f 73//152 29//152 35//152
f 71//153 35//153 69//153
f 69//154 35//154 25//154
f 14//155 25//155 89//155
f 89//156 25//156 26//156
f 89//157 26//157 90//157
f 90//158 26//158 27//158
f 63//159 27//159 88//159
f 88//160 27//160 33//160
f 60//161 33//161 87//161
f 87//162 33//162 21//162
f 86//163 21//163 20//163
f 3//164 24//164 1//164
f 11//165 2//165 31//165
f 64//166 50//166 66//166
f 66//52 65//52 64//52
f 62//88 83//88 61//88
f 43//167 72//167 70//167
f 50//168 40//168 66//168
f 61//169 33//169 62//169
f 65//170 27//170 13//170
f 65//171 13//171 66//171
f 66//172 13//172 12//172
f 66//173 12//173 67//173
f 67//174 12//174 14//174
f 67//175 14//175 68//175
f 68//176 25//176 69//176
f 68//177 69//177 70//177
f 70//178 69//178 71//178
f 70//179 71//179 72//179
f 72//180 35//180 73//180
f 72//181 73//181 74//181
f 74//182 73//182 29//182
f 74//183 29//183 75//183
f 75//184 29//184 76//184
f 75//185 76//185 15//185
f 15//186 76//186 20//186
f 15//187 20//187 77//187
f 83//188 60//188 61//188
f 61//189 60//189 33//189
f 84//190 94//190 76//190
f 20//191 85//191 78//191
f 35//192 84//192 73//192
f 84//193 76//193 29//193
f 84//194 29//194 73//194
f 78//52 85//52 86//52
f 21//195 86//195 87//195
f 13//196 27//196 90//196
f 90//52 63//52 88//52
f 60//52 87//52 88//52
f 25//197 84//197 69//197
f 69//198 84//198 71//198
f 71//199 84//199 35//199
f 76//200 94//200 20//200
f 14//201 89//201 84//201
f 14//202 84//202 25//202
f 83//203 93//203 82//203
f 93//204 81//204 82//204
f 62//205 95//205 61//205
f 61//206 95//206 93//206
f 61//207 93//207 83//207
f 64//208 95//208 62//208
f 79//209 81//209 93//209
f 79//210 93//210 91//210
f 79//211 91//211 77//211
f 91//212 92//212 74//212
f 74//213 92//213 72//213
f 72//214 92//214 70//214
f 77//215 91//215 15//215
f 74//216 75//216 91//216
f 91//217 75//217 15//217
f 70//218 92//218 67//218
f 70//219 67//219 68//219
f 66//220 67//220 95//220
f 95//221 64//221 65//221
f 95//222 65//222 66//222
f 86//223 85//223 91//223
f 67//224 89//224 90//224
f 93//225 87//225 86//225
f 84//226 67//226 92//226
f 67//227 90//227 95//227
f 95//228 88//228 87//228
f 95//229 87//229 93//229
f 95//230 90//230 88//230
f 89//231 67//231 84//231
f 92//232 94//232 84//232
f 92//233 91//233 94//233
f 93//234 86//234 91//234
f 94//235 91//235 85//235
